<svg xmlns="http://www.w3.org/2000/svg" viewBox="0 0 500 500"><defs><style>.a{fill:#480ca8;}.b{fill:#f72585;}</style></defs><rect class="a" width="500" height="500"/><path class="b" d="M62.25,190.73a2.51,2.51,0,0,0,2-.93,4.77,4.77,0,0,1,2.48-.55c.83.06,1.71.08,2.64.08a4.4,4.4,0,0,1,1.09,1.17q.31.54,1.71.54a2,2,0,0,0,1.24-.47,3.09,3.09,0,0,0,.94-1.08l.31-.16h4.5a4.91,4.91,0,0,1,1.17,1.24c.15.32.7.47,1.63.47h.62a1.62,1.62,0,0,0,1-.85,1.62,1.62,0,0,1,1-.86h4.19l.94.93a2.92,2.92,0,0,0,1.08.78h1.56a3.8,3.8,0,0,0,1.16-1,1.85,1.85,0,0,1,.86-.7H98.6a6.41,6.41,0,0,1,.78.93,2.43,2.43,0,0,0,.93.78h2a3.73,3.73,0,0,0,.93-.62,1.27,1.27,0,0,1,.94-.31,7.19,7.19,0,0,1,2,.31,3.91,3.91,0,0,0,1.87.15l.62.47a5.35,5.35,0,0,1,1.71.31,2.84,2.84,0,0,0,1.55.16l1.56.77v2.33c.2.31.39.57.54.78a2.32,2.32,0,0,0,.86.62h2.17a2.33,2.33,0,0,0,1.55-1.71l.16-.15a1,1,0,0,1,.47.08,1.08,1.08,0,0,0,.46.07l.47.47q1.86.78,3,1.32a18.45,18.45,0,0,1,2,1.09,13.34,13.34,0,0,1,1.78,1.4c.62.57,1.4,1.26,2.33,2.09a3.3,3.3,0,0,0,1.56.39c.72.05,1.4.65,2,1.79a3.63,3.63,0,0,0,.46,1.78,2.42,2.42,0,0,0,1.4,1.17l1.87.16a2.31,2.31,0,0,1,1.39,1.39,2.87,2.87,0,0,0,.7,2.57,4.72,4.72,0,0,0,2.57.85,3.59,3.59,0,0,1,1.47,2.33,3.26,3.26,0,0,0,1.32,2.18l1.25.46q.15.16.93,1.32c.52.78,1,1.63,1.55,2.57s1,1.84,1.48,2.72a15.32,15.32,0,0,1,.85,1.78l.47.62v.31a2.74,2.74,0,0,0-1.56.55,2.9,2.9,0,0,0-1.08,1.32v1.71a4.12,4.12,0,0,0,1.55,1.4h1.55a8,8,0,0,0,.78-.47,1.48,1.48,0,0,1,.78-.31l.15.15a5.91,5.91,0,0,1,.08,1.64,13.58,13.58,0,0,0-.08,1.47c0,1,.26,1.69.78,1.94a2.82,2.82,0,0,1,1.24,1.64,6.54,6.54,0,0,0,.24,1.78,6.46,6.46,0,0,1,.23,1.63c0,.31-.21.55-.62.7a2.51,2.51,0,0,0-.93.55,1.38,1.38,0,0,0-.39.54,3.94,3.94,0,0,1-.24.54v.31a2.88,2.88,0,0,0,.31,1.25,2.08,2.08,0,0,0,1.09.85l1.25.23a3.11,3.11,0,0,0,.46,1.87V251a.86.86,0,0,1-.62-.16h-.78a1.33,1.33,0,0,0-.93,1.4c.41.93.78,1.27,1.09,1a1.45,1.45,0,0,1,1.24-.23v2.64l-.31.78c0,1.14,0,2-.08,2.72a15.27,15.27,0,0,1-.23,1.78c-.1.52-.23,1.07-.39,1.63a17.4,17.4,0,0,0-.39,2.1v1.71l-.93,2v1.4a5.36,5.36,0,0,0-.47.85,4.9,4.9,0,0,1-.46.86l-.16,1.4a70.68,70.68,0,0,1-11.18,18.64,62,62,0,0,1-16.63,14q-2.17,1.24-5.05,2.72a16.17,16.17,0,0,1-5.36,1.79,3.31,3.31,0,0,1-1.24.62,16.87,16.87,0,0,1-2,.54c-.72.16-1.4.31-2,.47a6.67,6.67,0,0,1-1.4.23l-.62.31h-1.24a4.87,4.87,0,0,1-3,.62c-1-.1-2.08-.15-3.11-.15a8,8,0,0,1-3,.39l-6,.15c-2.33.06-4.85.08-7.54.08h-18a9.1,9.1,0,0,1-2.72-.47c-1-.31-1.89-.62-2.72-.93a31.09,31.09,0,0,1-4.74-2.25,19.84,19.84,0,0,1-3.41-2.56,21.7,21.7,0,0,1-2.8-3.27q-1.32-1.86-2.87-4.35a4.93,4.93,0,0,1-.63-1.63,4.78,4.78,0,0,0-.62-1.63v-2.8c-.21-.41-.41-.88-.62-1.4a4,4,0,0,1-.31-1.55V212.33a8.18,8.18,0,0,1,.54-3,6.69,6.69,0,0,0,.39-3.1,13.19,13.19,0,0,0,.78-1.4,3.62,3.62,0,0,0,.47-1.4h.15l.54.54a.94.94,0,0,0,.7.24c.42,0,.73-.31.94-.94V203l-.78-.77-.62-.16v-.62c.31-.41.8-1.09,1.47-2s1.4-1.86,2.18-2.8a26.84,26.84,0,0,1,2.33-2.48,3.29,3.29,0,0,1,2.1-1.09h.15l.31,1.09.7.7a1.2,1.2,0,0,0,.86.39,2.27,2.27,0,0,0,1.86-1.09l.16-.62-.16-.94-1.09-1.08v-.16l.16-.15L59,191a1.76,1.76,0,0,0,.38-.23,2,2,0,0,1,.39-.24,9.72,9.72,0,0,1,1.32.08A7.17,7.17,0,0,0,62.25,190.73Zm-9.79,8.86a1.8,1.8,0,0,0,.78-.16c.1,0,.25-.26.46-.78v-.77l-.77-.78H52c-.1,0-.31.16-.62.47V199A1.69,1.69,0,0,0,52.46,199.59ZM105.13,191a2.82,2.82,0,0,0-.78.7,4.75,4.75,0,0,0-.62.85v1.71a3.06,3.06,0,0,0,.62,1c.31.37.57.65.78.86h-.31a17,17,0,0,1-2.72-.24c-1-.15-1.94-.28-2.88-.38l-.62-.31c-.1-.21,0-.47.31-.78v-2a8.79,8.79,0,0,1-.62-.7,3.32,3.32,0,0,0-.78-.7h-2a2,2,0,0,0-1,.7,8.7,8.7,0,0,0-.55,1.16,5.33,5.33,0,0,1-.08.86.94.94,0,0,0,.24.85l-.16.16H89.13v-2c-.21-.41-.39-.75-.55-1a2,2,0,0,0-1-.7H85.86q-.31,0-.93.78a10,10,0,0,0-.78,1.08,4.49,4.49,0,0,0,.08.86,4.46,4.46,0,0,1,.08.85l-.16.16H79.34V192.9A2.29,2.29,0,0,0,76.85,191h-.62a2.92,2.92,0,0,0-1.55,1.32,1.88,1.88,0,0,0-.16,1.94v.47H69.39v-2.18A3,3,0,0,0,68,191.2h-.63c-1.65,0-2.48.77-2.48,2.33a2.38,2.38,0,0,0,.78,1.71l-.16.31a17.94,17.94,0,0,0-6,2,12.46,12.46,0,0,0-4.89,4v.46a9.31,9.31,0,0,0,2.79-1.63,5.16,5.16,0,0,1,3-1.32q.32,0,.63.54c.2.37.72.55,1.55.55H63a1.62,1.62,0,0,0,1-.86,2.69,2.69,0,0,0,.39-1.32c.94-.1,1.79-.23,2.57-.39a9.25,9.25,0,0,1,2.72-.07v1.7A2.83,2.83,0,0,0,72,200.83a2.74,2.74,0,0,0,2.48-2l-.15-1.24h4.81a6.93,6.93,0,0,0,.62,2.33c.31.62,1,.93,2.18.93h.62q.32,0,.93-.78a8.9,8.9,0,0,0,.78-1.09l.15-1.39H89l.16,1.55a2.67,2.67,0,0,0,.69,1,2.8,2.8,0,0,0,1,.7h1.56a3.1,3.1,0,0,0,1.86-3c0-.11.16-.16.47-.16a10.62,10.62,0,0,1,1.86.16l1.87.31.31.31.15.93a3.06,3.06,0,0,0,1.4,1.4h2.33l1.4-1.4h.78a12,12,0,0,1,1.71.31c.93.21,1.88.47,2.87.78l2.72.85a5.33,5.33,0,0,1,1.4.55v2.48a9.38,9.38,0,0,0,1.08,1.17,3.25,3.25,0,0,0,1.56.23h.93a2.24,2.24,0,0,0,1.55-1.24h.16a3,3,0,0,1,.85.39,4.92,4.92,0,0,1,.86.54,3.14,3.14,0,0,0-2,1.4v2.48a1.87,1.87,0,0,0,1.4,1.25h2.33a9.7,9.7,0,0,1,.77-.7c.31-.26.47-.49.47-.7l.16-1.71h.31a11.11,11.11,0,0,0,1.47,1,11.17,11.17,0,0,1,1.48,1c1,.83,2.22,1.86,3.57,3.11s2.67,2.56,4,4a43.68,43.68,0,0,1,3.5,4.27,21.48,21.48,0,0,1,2.33,4v.47a5.72,5.72,0,0,0-1.4.77,1.83,1.83,0,0,0-.62,1.56,2.42,2.42,0,0,0,.31,1.08l.93.94h2l.62-.47h.31a2.91,2.91,0,0,1,.86,1.94c0,.78.08,1.48.08,2.1.41.52.64.83.7.93a3.24,3.24,0,0,0,1,.62,3.17,3.17,0,0,0,.31,1.32,7,7,0,0,0,.62,1.17,12.18,12.18,0,0,0,.15,1.78,3.59,3.59,0,0,0,.62,1.64,4.78,4.78,0,0,0-1.39-.31q-1.71,0-1.71,2v.32a1.89,1.89,0,0,0,1.4,1.39h.31a3,3,0,0,0,1.55-.62h.31a10,10,0,0,1,.47,1.48,3.39,3.39,0,0,0,.62,1.32v4.5a3.8,3.8,0,0,1,.31,1.25v1.24c0,1.24,0,2.46-.16,3.65s-.15,2.41-.15,3.65a8.45,8.45,0,0,0-.93,2.8,16.53,16.53,0,0,0-.47,2.95,5.5,5.5,0,0,0-.78,1.63,3.56,3.56,0,0,0-.15,1.79,6.41,6.41,0,0,0-.78,1.4l-.15,1.39a9.58,9.58,0,0,1-.63,1.09,2.29,2.29,0,0,0-.31,1.25c-.21.31-.52.85-.93,1.63s-.83,1.58-1.24,2.4l-1.17,2.33a4.7,4.7,0,0,0-.54,1.4l-.78.94.16.31c.1,0,.28-.16.54-.47a9.34,9.34,0,0,0,.78-1.09c.26-.41.52-.8.77-1.16a5.81,5.81,0,0,1,.55-.7,5.62,5.62,0,0,1,.7-1.87c.46-.93,1-1.91,1.55-3s1.11-2,1.63-3a16.63,16.63,0,0,0,1.09-2.41l.16-1.55a4.14,4.14,0,0,1,.38-.62,3.53,3.53,0,0,0,.39-.62,3.69,3.69,0,0,1,.16-1.79,5.26,5.26,0,0,1,.77-1.63,9.64,9.64,0,0,1,.94-4,8.2,8.2,0,0,0,.93-3.11.76.76,0,0,0-.23-.54,2.07,2.07,0,0,1-.39-.54v-1.09a4.63,4.63,0,0,1,.08-1.09,5.16,5.16,0,0,1,.38-.93V249a2.16,2.16,0,0,0,.78-.54,7.44,7.44,0,0,0,.47-1v-.16q0-1.25-1.56-1.86l-.15-.31a5.84,5.84,0,0,0-.47-2.33,5.87,5.87,0,0,1-.46-2.33v-.63l.15-.31h1.71a3.18,3.18,0,0,0,.78-.62,1.26,1.26,0,0,0,.46-.78v-.62a1.92,1.92,0,0,0-2.17-2.17h-.62a6.48,6.48,0,0,0-.7.39,3.11,3.11,0,0,0-.7.54,3.72,3.72,0,0,0-.62-2.33v-1.71a2.37,2.37,0,0,0-.78-1.32,3.23,3.23,0,0,1-.93-1.63,4.89,4.89,0,0,1-1.25-2.18,15.65,15.65,0,0,0-1.08-2.48l.77.46h2a1.71,1.71,0,0,0,.86-.77q.39-.63.54-.93v-.47c0-1.66-.78-2.49-2.33-2.49a5.19,5.19,0,0,0-1.4.31,8.38,8.38,0,0,0-.93,1.09L143,223h-.32l-1.39-2.33v-.15c0-.21.28-.49.85-.86a1.94,1.94,0,0,0,.86-1.78,2.06,2.06,0,0,0-.78-1.71,2.93,2.93,0,0,0-1.87-.62,3.61,3.61,0,0,0-2,.77l-1.08-1.08V215a7,7,0,0,0,.77-1.4v-.47c0-1.65-.88-2.48-2.64-2.48h-.62l-.93.46a3,3,0,0,1-1.09-.77v-.47l.47-.78v-1.71a2.84,2.84,0,0,0-1.71-1.71h-1.71a3.81,3.81,0,0,0-1.24.94,1.22,1.22,0,0,1-1.25-.78v-.16l.94-1.08v-2.49L127,200.83h-2.48a3.14,3.14,0,0,0-1.4,2H123q-2.94-1.24-4.58-2l-3.11-1.48c-1-.46-1.47-.75-1.47-.85a3.46,3.46,0,0,0-.39-1.56,2.2,2.2,0,0,0-1.17-1.08H110.1a4.15,4.15,0,0,0-.7.46c-.26.21-.49.42-.7.62h-.15a5.34,5.34,0,0,1-1.25-.15,5.27,5.27,0,0,0-1.24-.16l-.47-.46,1.71-.16a2.4,2.4,0,0,0,1.4-1.24v-2.49l-1.4-1.39a8.51,8.51,0,0,0-1.16.07A6.21,6.21,0,0,1,105.13,191ZM56.19,203.16v.31l.62.62a.88.88,0,0,0,.62.31.91.91,0,0,0,.62-.15,1.69,1.69,0,0,0,.62-1.09v-.31l-.93-.93h-.31A1.09,1.09,0,0,0,56.19,203.16Zm5,4.81c0,.83.36,1.25,1.09,1.25.41,0,.67-.05.77-.16.32-.31.47-.51.47-.62v-1.09l-.47-.46H61.94l-.55.54A.78.78,0,0,0,61.16,208ZM65,203.16v.46A3.91,3.91,0,0,0,65.9,205a1.8,1.8,0,0,0,1.32.54,2,2,0,0,0,2.17-1.55v-1.56l-1.08-1.09a2.64,2.64,0,0,0-1.09-.31,2.6,2.6,0,0,0-1.09.31A3.34,3.34,0,0,0,65,202.85ZM66.29,213v.46l.46.47h.62l.63-.62v-.62l-.63-.63h-.62l-.46.47ZM67.37,223v-.31l-.15-.15h-.16v.31l.16.15Zm2.49-14.91a1.67,1.67,0,0,0,.16.78A2.41,2.41,0,0,0,71.41,210h.47a2.15,2.15,0,0,0,2.33-1.55V207.2A1.87,1.87,0,0,0,73.12,206H71A2.49,2.49,0,0,0,69.86,208.13Zm1.55,29.36.16.47.31.31H72a.91.91,0,0,0,.77-.47v-.62l-.31-.31-.46-.15-.32.15Zm0,9.79v.47l.31.31a.31.31,0,0,1,.24.08c.05.05.18.07.39.07a.67.67,0,0,0,.54-.31,1,1,0,0,0,.23-.62v-.15l-.62-.63h-.62l-.47.47Zm0,9.79v.46l.31.32a1,1,0,0,0,.63.15.64.64,0,0,0,.46-.15l.31-.63v-.15a1.06,1.06,0,0,0-.31-.78h-.93l-.47.47Zm0,9.79.16.46.15.16h.78l.31-.31v-.78l-.15-.16-.62-.15-.32.15ZM72,228.17h.15l.31-.31v-.15c0-.21,0-.32-.15-.32h-.63V228C71.72,228.12,71.83,228.17,72,228.17Zm-.32,48.47c0,.31.21.47.63.47l.31-.31v-.31l-.47-.47C71.88,276,71.72,276.23,71.72,276.64Zm2.65-73.17v.15a4.82,4.82,0,0,0,.93,1.48,2.08,2.08,0,0,0,2.87.23c.36-.31.7-.62,1-.93a3.24,3.24,0,0,0,.16-1.24c0-1.55-.83-2.33-2.49-2.33h-.62a3.09,3.09,0,0,0-1.32,1A2.58,2.58,0,0,0,74.37,203.47ZM75.3,262v.16a6.46,6.46,0,0,0,.62.93,6.46,6.46,0,0,0,.93.62H77a2.42,2.42,0,0,0,1.08-.31,3.27,3.27,0,0,0,.63-.78v-1.24a2.06,2.06,0,0,0-.94-.93H76.39l-.47.31a1.54,1.54,0,0,0-.39.54,3.77,3.77,0,0,1-.23.54Zm.31-9.79v.47a2.89,2.89,0,0,0,.78.78h1.24l.62-.63v-1.08a2.06,2.06,0,0,0-.93-.94h-.78a1.48,1.48,0,0,0-.93,1.09Zm.15,19.42v.47a1.48,1.48,0,0,0,1.09.93h.31a1.42,1.42,0,0,0,1.25-.78v-1.24a1.5,1.5,0,0,0-.94-.78H76.7a2,2,0,0,0-.94.94Zm.16-29.36a1.74,1.74,0,0,0,.62,1.09h.31a.83.83,0,0,0,.93-.94.93.93,0,0,0-.15-.62l-.62-.31h-.16Q75.92,241.53,75.92,242.31Zm.31,39.31v.15l.47.47h.62a1.26,1.26,0,0,0,.46-.78c0-.21-.26-.47-.77-.78l-.62.31A.88.88,0,0,0,76.23,281.62ZM76.7,213a.28.28,0,0,0,.31.31.28.28,0,0,0,.31-.31l-.31-.31-.31.15Zm2.79-5.13v.47a2.47,2.47,0,0,0,1.09,1.39A4.83,4.83,0,0,0,82,210a2.49,2.49,0,0,0,1.09-.31,3.89,3.89,0,0,0,.93-1.24V207.2a2.12,2.12,0,0,0-2-1.56,2.43,2.43,0,0,0-2.49,1.71Zm.31,59a2.07,2.07,0,0,0,.16.93l1.09,1.09a.91.91,0,0,0,.62.15A2.44,2.44,0,0,0,84,267.94v-2a5.58,5.58,0,0,0-1.09-1.08,2.73,2.73,0,0,0-1.09-.16,1.8,1.8,0,0,0-1.39.7A2.19,2.19,0,0,0,79.8,266.86Zm.31-9.79A1.65,1.65,0,0,0,82,258.93a1.6,1.6,0,0,0,1.55-1.08v-1.09a1.87,1.87,0,0,0-1.09-1.24H81.2a1.18,1.18,0,0,0-.7.62c-.15.31-.28.57-.39.77Zm.16,19.42A1.51,1.51,0,0,0,82,278.2,1.61,1.61,0,0,0,83.53,277v-1.08a2,2,0,0,0-.93-.93H81.36a1.43,1.43,0,0,0-.78.69A1.91,1.91,0,0,0,80.27,276.49Zm.47-29.21a1,1,0,0,0,1.08,1.09h.31l.63-.62v-.31a1.37,1.37,0,0,0-.47-.94H81.2l-.46.47Zm3.41-44v.31a4.77,4.77,0,0,0,.78,1.4,4.91,4.91,0,0,0,1.4.78h.31a4.88,4.88,0,0,0,1.24-.31c.21-.21.47-.44.78-.7s.47-.49.47-.7v-.78a2.41,2.41,0,0,0-1.56-2.48H85.86c-.21,0-.44.15-.7.46a10,10,0,0,1-.7.78A2.87,2.87,0,0,0,84.15,203.31Zm1.4,36.82c-.1,3.32-.15,6.63-.15,10V260c-.31.52-.55.88-.7,1.09a2.2,2.2,0,0,0-.24,1.24V263a4.81,4.81,0,0,0,1.09,1.25v3.1l1.4,1.56-.16.31a2.5,2.5,0,0,0-2.33,1.55v1.55A2.81,2.81,0,0,0,86.17,274h1.56a1.82,1.82,0,0,0,1.08-1.08,3.58,3.58,0,0,0,.47-1.56l.16-.15h.77c.52,0,1.09,0,1.71.07s1.19.08,1.71.08l.16.16A3.11,3.11,0,0,0,95.18,274a2.75,2.75,0,0,0,1.25.31,2.22,2.22,0,0,0,1.94-1,3.59,3.59,0,0,0,.7-2.09l.31-.31a3.54,3.54,0,0,0,2.17-.7,4.88,4.88,0,0,1,1.56-.86c.93-.93,1.89-1.81,2.87-2.64s1.94-1.71,2.88-2.64v-.47h-.16c-.52.52-1.32,1.22-2.41,2.1a9.14,9.14,0,0,1-2.56,1.63,6.51,6.51,0,0,0-.54-1.55,2.19,2.19,0,0,0-1.17-1.09h-1.71a1.65,1.65,0,0,0-1.16,1.17,6,6,0,0,0-.24,1.63,2.29,2.29,0,0,1,.31.93c0,.21-.15.31-.46.31H94.1l-.31-.15.31-.63v-2.17a3.06,3.06,0,0,0-1.4-1.4h-2a2.31,2.31,0,0,0-1.09.78,5.83,5.83,0,0,1-.78.93L87.73,265v-.46l.77-.78a2.56,2.56,0,0,0,.63-.93v-1.4a1.58,1.58,0,0,0-.7-.93,1.52,1.52,0,0,1-.7-.78v-6.06c.1-.21.2-.44.31-.7a2,2,0,0,0,.15-.7v-.15l-.46-.93V238.58a.31.31,0,0,1-.24-.08.32.32,0,0,0-.23-.07A4.5,4.5,0,0,0,85.55,240.13Zm0,41v.62a3.18,3.18,0,0,0,.62.78.31.31,0,0,1,.24.08.62.62,0,0,0,.38.07,3.59,3.59,0,0,0,.63-.39,5.82,5.82,0,0,0,.62-.54V281a1.5,1.5,0,0,0-.78-.93h-.93a3.44,3.44,0,0,0-.78.62Zm3.73-73.33v.47a2.8,2.8,0,0,0,.7,1,2.67,2.67,0,0,0,1,.69h1.4a1.91,1.91,0,0,0,1.4-1.24V207.2a5.29,5.29,0,0,0-.39-.62,5.2,5.2,0,0,0-.55-.62,4.88,4.88,0,0,0-1.39-.32,2.38,2.38,0,0,0-2.18,1.71Zm0,68.67A2.4,2.4,0,0,0,91,278.66h1.55a1.86,1.86,0,0,0,1.25-1.39v-1.56a3.92,3.92,0,0,0-.94-1.24,4.88,4.88,0,0,0-1.24-.31h-.47a3.61,3.61,0,0,0-1.32.93A2.09,2.09,0,0,0,89.28,276.49ZM93.79,240a.93.93,0,0,0-.47.78V255.2a.86.86,0,0,1-.93.08,2.13,2.13,0,0,0-.93-.23,2.37,2.37,0,0,0-.94.31A6,6,0,0,0,90,256a3.94,3.94,0,0,0-.39.62v1.56c.21,1,.7,1.47,1.48,1.32a9.86,9.86,0,0,1,1.94-.24.43.43,0,0,0,.31.16v3l.47.47a2.76,2.76,0,0,0,1.71,1.71h.93a3.2,3.2,0,0,0,1.4-.24,1.21,1.21,0,0,0,.62-.62,6.64,6.64,0,0,1,.31-.7,1,1,0,0,1,.46-.46,7.27,7.27,0,0,0,3.11-1.56,26.85,26.85,0,0,0,2.64-2.17,5.93,5.93,0,0,1,1.24-2.18,7.56,7.56,0,0,1,.55-1.4,3,3,0,0,0,.39-1.24c0-.83,0-1.76.07-2.79a15.81,15.81,0,0,0-.07-2.8c-.21-.41-.42-.78-.62-1.09a1.89,1.89,0,0,1-.32-1.09,47.12,47.12,0,0,0-4.27-4.58,8.27,8.27,0,0,0-5.82-1.94,4.36,4.36,0,0,0-1.17.15A4,4,0,0,1,93.79,240Zm.15-36.67v.63A3,3,0,0,0,95,205.26a2.7,2.7,0,0,0,1.55.54h.47c.62-.31,1-.52,1.16-.62a3.18,3.18,0,0,0,.7-.93v-2a8.79,8.79,0,0,1-.62-.7,3.32,3.32,0,0,0-.78-.7H95.65c-.73.31-1.09.52-1.09.62a6,6,0,0,1-.62,1.24Zm.93,78v.47a3.39,3.39,0,0,0,1.09.93h1.09a1.41,1.41,0,0,0,.93-.77v-1.56l-.62-.62a1.81,1.81,0,0,0-.78-.15,1.7,1.7,0,0,0-1.71,1.08Zm.94-68.51c0,.42.15.68.46.78h.31c.31,0,.47,0,.47-.16v-.93a.9.9,0,0,0-.62-.31h-.16l-.46.47Zm3.1-4.66a1.85,1.85,0,0,0,.55,1.24,2.26,2.26,0,0,0,1.16.78h1.71a2,2,0,0,0,1.55-1.55v-1.25c-.1-.72-.67-1.29-1.7-1.71h-1.71l-1.4,1.4A2.56,2.56,0,0,0,98.91,208.13Zm.16,68.36v.62a2,2,0,0,0,1.55,1.55h1.24l.94-.46a1.8,1.8,0,0,0,.62-.93v-1.4a1.93,1.93,0,0,0-1.4-1.4h-1.71a10,10,0,0,1-.78.7c-.31.26-.46.49-.46.7Zm2.17,9.79v.15l.16.16h.15l.16-.16v-.15l-.16-.16h-.15Zm2.49-83.12v.93a2.6,2.6,0,0,0,.7,1,2.72,2.72,0,0,0,1,.7h1.86a2.4,2.4,0,0,0,1.4-1.24v-2.49a3.51,3.51,0,0,0-1.24-1.24H105a2.24,2.24,0,0,0-1.24,1.55Zm.31,68.51a2.69,2.69,0,0,0,.39,1.32,1.59,1.59,0,0,0,1,.86h.46a2.15,2.15,0,0,0,2.33-1.56v-.46a1.92,1.92,0,0,0-1.39-2h-1.4A2,2,0,0,0,104,271.67Zm.47-9.47v.62a2,2,0,0,0,.93.93h1.09a1.88,1.88,0,0,0,1.24-1.24v-.31a1.82,1.82,0,0,0-1.09-1.56h-1.24a1.45,1.45,0,0,0-.93,1.09Zm.46-49.56v.46c.21.62.52,1,.93,1.09h.94a1.87,1.87,0,0,0,1.08-1.09v-1.24a3.18,3.18,0,0,0-.62-.78l-.93-.31-.47.16A3.45,3.45,0,0,0,105,212Zm0,68.82v.47a2.14,2.14,0,0,0,1.4.77,1.86,1.86,0,0,0,1.24-1.24v-.16a1.24,1.24,0,0,0-.46-1,1.45,1.45,0,0,0-.94-.39,1.73,1.73,0,0,0-.77.15c-.11,0-.26.26-.47.78ZM108.7,208v.94a2.17,2.17,0,0,0,1.09,1.32,3.42,3.42,0,0,0,1.55.39H112a2.82,2.82,0,0,0,1.71-1.56v-2a3.06,3.06,0,0,0-1.4-1.4H110.1a3,3,0,0,0-.78.7,4.74,4.74,0,0,0-.62.86Zm.62,68.36v.47a2.49,2.49,0,0,0,1.09,1.4h1.24l1.09-1.09V276a2.32,2.32,0,0,0-1.24-1.08h-1.09a1.87,1.87,0,0,0-1.09,1.08Zm.16-9.32v.31a1.71,1.71,0,0,0,1.71,1.25c.41,0,.82-.32,1.24-.94v-1.24c-.1-.52-.57-.88-1.4-1.09a2.53,2.53,0,0,0-1.4.78A2.24,2.24,0,0,0,109.48,267Zm.77-49.25a1,1,0,0,0,.63.93H111a.94.94,0,0,0,.7-.23l.54-.54v-.16a.82.82,0,0,0-.93-.93C110.62,216.83,110.25,217.14,110.25,217.76Zm3.58-5v.62a3.19,3.19,0,0,0,.62,1.09,3.36,3.36,0,0,0,1.09.62h.62a2.46,2.46,0,0,0,1.47-.31,3.85,3.85,0,0,0,.86-1.24V212c-.11-.51-.57-1-1.4-1.39h-2c-.21.2-.44.41-.7.62a1.6,1.6,0,0,0-.54.77Zm.93,58.88v.62c0,.11.16.31.47.63a1.24,1.24,0,0,0,.77.15.91.91,0,0,0,.62-.15c.31-.32.47-.52.47-.63v-1.08a1.67,1.67,0,0,0-1.09-.62,1.73,1.73,0,0,0-.77.15l-.47.47Zm.62,9.79.31.31h.47l.31-.31v-.31l-.31-.31H116A.55.55,0,0,0,115.38,281.46Zm3.11-84.36v2.49l.46.69a2.22,2.22,0,0,0,.78.55h2.49a1.86,1.86,0,0,0,1.24-1.4v-2.17a1.84,1.84,0,0,0-1.24-1.4h-2.33A1.86,1.86,0,0,0,118.49,197.1Zm.46,20.66v.31a2.32,2.32,0,0,0,2.33,1.71h.47a1.91,1.91,0,0,0,1.4-1.24V217a2.12,2.12,0,0,0-2-1.56,5.38,5.38,0,0,0-1.24.31A2.52,2.52,0,0,0,119,217.76Zm1.4,58.73V277a.61.61,0,0,0,.47.16.59.59,0,0,0,.46-.16v-.77c0-.1-.15-.16-.46-.16s-.47.06-.47.16Zm3-63.54v.93a2.7,2.7,0,0,0,2.65,1.71h.46c.62-.31,1-.52,1.17-.62a3.66,3.66,0,0,0,.7-.94v-2c-.11-.51-.57-1-1.4-1.39H124.7a2.66,2.66,0,0,0-.77.7,5.09,5.09,0,0,0-.63.85Zm.78,9.63v.62a1.91,1.91,0,0,0,1.4,1.4h1.4a1.91,1.91,0,0,0,1.24-1.4V222a8.79,8.79,0,0,1-.62-.7,3.54,3.54,0,0,0-.78-.7h-.46a2.5,2.5,0,0,0-1.4.31,1.45,1.45,0,0,0-.78.93Zm1.71,9.79c0,.31.1.46.31.46s.31-.15.31-.46a.31.31,0,0,0-.62,0Zm2.49-14.3v.47a2.59,2.59,0,0,0,2.48,1.86,2.48,2.48,0,0,0,2.49-2v-.31a5.14,5.14,0,0,0-.31-1.39,2.29,2.29,0,0,0-1.56-1.25h-.62a2.73,2.73,0,0,0-1.09.16,3.59,3.59,0,0,0-1.24,1.24A4.19,4.19,0,0,0,128.28,218.07Zm.62,9.48v.62a2,2,0,0,0,2,1.56h.31a3.27,3.27,0,0,0,1.55-1.09,2.73,2.73,0,0,0,.16-1.09,1.79,1.79,0,0,0-2-2,2.56,2.56,0,0,0-1.09.16,4.36,4.36,0,0,0-.54.62,3.53,3.53,0,0,0-.39.62Zm.93,9.94a.91.91,0,0,0,.15.62l.47.32h.78a1.1,1.1,0,0,0,.77-1.09V237l-.62-.62-.62-.16A1.22,1.22,0,0,0,129.83,237.49Zm.78,10.1h.46l.16-.15V247h-.47l-.15.16Zm.15,9.79.16-.16v-.31h-.31v.31Zm4.66-32.32a2.26,2.26,0,0,0,2.49-1.55V222a2.39,2.39,0,0,0-2.18-1.56,3.12,3.12,0,0,0-1.39.31,7.83,7.83,0,0,0-.94,1.09v2c.21.21.44.47.7.78s.49.46.7.46Zm-1.86,7.46a2.46,2.46,0,0,0,.31,1.09l.78.78a2.56,2.56,0,0,0,1.08.31,1.44,1.44,0,0,0,1.17-.47,5.52,5.52,0,0,0,.7-1.09V231.9a4,4,0,0,0-.93-1.24h-2a3.2,3.2,0,0,0-1.09,1.55Zm.78,9.79v.62a1.49,1.49,0,0,0,1.39,1.09,1.6,1.6,0,0,0,1.71-1.4v-.16a2.42,2.42,0,0,0-.31-1.08,2.49,2.49,0,0,0-1.4-.78,1.33,1.33,0,0,0-1.39,1.09Zm.46,9.79v.62a1,1,0,0,0,.93.62.86.86,0,0,0,.62-.16,1,1,0,0,0,.63-.93v-.15a5.46,5.46,0,0,0-.63-.93c-.1-.11-.36-.16-.77-.16h-.16l-.62.62ZM135,262v.16a.71.71,0,0,0,.77.46c.42,0,.62-.26.62-.78s-.25-.62-.77-.62h-.16A.92.92,0,0,0,135,262Zm1.86,25.48H137l.46-.47h-.15Zm.93-.93.16-.16c0-.1,0-.15-.16-.15l-.15.15C137.6,286.54,137.65,286.59,137.75,286.59Zm.16-.47v.16l.46-.47v-.15h-.15Zm.78-48.63v.62a1.39,1.39,0,0,0,.77.94,2.49,2.49,0,0,0,1.09.31h.31a1.87,1.87,0,0,0,1.55-1.87,2.24,2.24,0,0,0-.15-.93l-.78-.78a2.24,2.24,0,0,0-.93-.15,2.77,2.77,0,0,0-1.09.15,3.09,3.09,0,0,0-.77,1.09Zm.31,9.79v.31c.2.62.51,1,.93,1.09H141a1.91,1.91,0,0,0,1.08-1.24v-.16a1.33,1.33,0,0,0-.46-.93,3.18,3.18,0,0,0-.78-.62h-.78A1.79,1.79,0,0,0,139,247.28Zm0,37.29v.15l.31-.31h-.16Zm.46-27.66a.93.93,0,0,0,.24.7l.54.55h.62c.52-.52.78-.88.78-1.09v-.16c-.21-.62-.57-.93-1.09-.93h-.31Q139.46,256.45,139.46,256.91Zm4.66-4.81a.64.64,0,0,0,.08.39.6.6,0,0,1,.08.38c.31.31.52.47.62.47H146c.1,0,.25-.1.46-.31a2.46,2.46,0,0,0,.31-1.09v-.15a2,2,0,0,0-.93-.94h-.62a1.89,1.89,0,0,0-1.09,1.09Z"/><path class="b" d="M175.82,191v-.15c.51-.63.9-.94,1.16-.94a2.64,2.64,0,0,0,1.17-.46,6.74,6.74,0,0,0,1.78-.31c.16-.11.65-.37,1.48-.78h.78l.62-.31a5.55,5.55,0,0,0,1.4-.16,5.86,5.86,0,0,1,1.39-.15h.62l1.71,1.71h1.87a1.55,1.55,0,0,0,.93-.62l.62-.94.31-.15H196a2.83,2.83,0,0,1,1,1.32c.16.46.75.7,1.79.7a2.06,2.06,0,0,0,1.86-1.17,2.56,2.56,0,0,1,.78-.85h4.35a2.64,2.64,0,0,1,.85,1.16c.26.57.91.86,1.95.86a2.09,2.09,0,0,0,1.86-1.17,2.56,2.56,0,0,1,.78-.85h4.19a14.14,14.14,0,0,1,1.25,1.4,2,2,0,0,0,1.7.62,1.49,1.49,0,0,0,1.48-.78,3,3,0,0,1,1.17-1.24h4.19a4.38,4.38,0,0,1,1.09,1.16,2.09,2.09,0,0,0,1.24.86h1.24a5.4,5.4,0,0,0,.55-.31,3.35,3.35,0,0,1,.54-.31,4.66,4.66,0,0,0,.47-.7,3.73,3.73,0,0,1,.46-.7h.62a10.29,10.29,0,0,1,1.79.15,9.46,9.46,0,0,0,1.79.16l1.32,1.32a2.39,2.39,0,0,0,1.63.39,3.08,3.08,0,0,0,1.24-.16L240,189a1.8,1.8,0,0,1,1.24.62v.16l-.93,1.09v2.48a3.51,3.51,0,0,0,1.24,1.24h2.33c.83-.41,1.3-.88,1.4-1.39v-2.8a6.15,6.15,0,0,0,2.18,1,13.32,13.32,0,0,1,2.33.85l.15.16.16.93.62.93.62.31h3.11l.62.63a5.15,5.15,0,0,1-.08.77,5.84,5.84,0,0,0-.08.93v.94a2.27,2.27,0,0,0,2.49,1.71,3.17,3.17,0,0,0,2.33-.94H260l.78.78v.31a2.76,2.76,0,0,0-.93,1.24v1.71l.46.93a2,2,0,0,0,1.24.78H263a2.94,2.94,0,0,0,.94-.54c.31-.26.56-.49.77-.7h.16l1.08,1.09v.15a4.86,4.86,0,0,0-1.24,2v.78a3.26,3.26,0,0,0,.93,1.55,5.71,5.71,0,0,0,1.71.62,3.68,3.68,0,0,0,1.71-.77h.47l.77.93v.31a3.36,3.36,0,0,0-.62,1.86c0,.83.18,1.38.55,1.63a10.85,10.85,0,0,0,1.47.86h1.56c.82,1.76,1.5,3.13,2,4.12s1,1.94,1.39,2.87l.78,1.71v.78l-.15.31a2.15,2.15,0,0,0-2.33,1.55v1.24a2.44,2.44,0,0,0,1.08,1.4,2.8,2.8,0,0,0,1.09.08,5.26,5.26,0,0,1,1.09-.08l.15.16.94,2a5.82,5.82,0,0,0,.07.93,5.84,5.84,0,0,1,.08.93v14.92a5.46,5.46,0,0,1-.93,3.1l-.16,2.49-.77,1.55a9.17,9.17,0,0,1-1.56,4.59,10.33,10.33,0,0,0-1.71,4.27,13.68,13.68,0,0,0-2.79,4.11,16.24,16.24,0,0,1-2.8,4.28v1.24a15.87,15.87,0,0,1,2.25,2.87,16.08,16.08,0,0,0,2.26,2.88v.15h-.16a1.73,1.73,0,0,1-.54-.07,1.82,1.82,0,0,0-.55-.08,1,1,0,0,0-.77.31l-.62.62a1.67,1.67,0,0,0-.16.78,1.6,1.6,0,0,0,.16.77l.77.78a.62.62,0,0,1,.39.08.62.62,0,0,0,.39.08q1.25,0,1.32-.63a1.16,1.16,0,0,1,.7-.93l.15.16a6.57,6.57,0,0,0,.63,2.17,4.83,4.83,0,0,1,.46,2.18,7.56,7.56,0,0,0,.39,2.41,7.5,7.5,0,0,1,.39,2.4,5.19,5.19,0,0,1-.08,1.09,4.68,4.68,0,0,1-.39.93v3.58a10,10,0,0,1-.93,1.55,2.27,2.27,0,0,0-.31,1.71,16.77,16.77,0,0,1-1.17,2.18c-.57.93-1.21,1.89-1.94,2.87s-1.45,1.89-2.17,2.72a13.34,13.34,0,0,1-1.71,1.71,27.1,27.1,0,0,1-2.49,1.55,15.93,15.93,0,0,0-2.33,1.55,5.06,5.06,0,0,0-1.24.32l-1.94.62c-.68.21-1.58.52-2.72.93a.62.62,0,0,1-.39-.08.62.62,0,0,0-.39-.08,5.76,5.76,0,0,1-1.86.31h-4.43a17.8,17.8,0,0,1-2.41-.15,4.92,4.92,0,0,0-1.86-.62c-.73-.1-1.35-.21-1.87-.31a2.14,2.14,0,0,0-1.24-.7,11.64,11.64,0,0,0-1.4-.08,12.68,12.68,0,0,0-2.64-1.24c-1.14-.42-2.31-.83-3.49-1.25a26.93,26.93,0,0,1-3.35-1.39,5.52,5.52,0,0,1-2.17-1.71,5.6,5.6,0,0,1-2.25-1c-1.09-.68-2.2-1.45-3.34-2.33s-2.2-1.74-3.19-2.57a10.89,10.89,0,0,1-1.78-1.71,8.56,8.56,0,0,1-3.58-3,16.68,16.68,0,0,0-3.42-3.49h-.31a.83.83,0,0,0-.93.62,6.53,6.53,0,0,1-.23,1.94c-.16.47-.39,1.07-.7,1.79l-.16,1.71a28.2,28.2,0,0,1-2.48,4.58,24.2,24.2,0,0,1-2.64,3.19,32.2,32.2,0,0,1-3,2.64q-1.64,1.25-3.81,3.1a6.68,6.68,0,0,0-1,.24,17.59,17.59,0,0,0-1.86.62l-1.79.7a4.23,4.23,0,0,1-.93.31.62.62,0,0,1-.39-.08.62.62,0,0,0-.39-.08,5.58,5.58,0,0,1-1.79.31h-1.63a15.83,15.83,0,0,1-2.17-.15,8,8,0,0,0-2.18,0,13.71,13.71,0,0,1-2.64-.78,16.8,16.8,0,0,1-1.86-.62,3.48,3.48,0,0,0-1.09-.31,5.15,5.15,0,0,0-1.86-.93,27.08,27.08,0,0,0-4.2-3.5,13.13,13.13,0,0,1-3.73-4,6.76,6.76,0,0,1-1-1.79,5.22,5.22,0,0,0-1.16-1.78,3.71,3.71,0,0,0-.47-2.33,4.67,4.67,0,0,1-.62-2.33,2.55,2.55,0,0,0-.31-.94c-.21-.41-.37-.72-.47-.93V208.75a5.88,5.88,0,0,1,.47-2.33,5.84,5.84,0,0,0,.46-2.33c.52-.93,1-1.89,1.56-2.87s1-2,1.4-3a1.6,1.6,0,0,1,.77-.62l.63.31h.31c.62,0,.93-.42.93-1.25l-.31-.62v-.31a6.18,6.18,0,0,1,1.16-1.4c.47-.41.91-.82,1.32-1.24h.31a1.48,1.48,0,0,0,.55.39,5.06,5.06,0,0,1,.54.23h.78a1.86,1.86,0,0,0,1.24-1.24,3.76,3.76,0,0,0-.08-.7A3.68,3.68,0,0,1,175.82,191Zm15.53,1.09a1.05,1.05,0,0,0,.08.46,1.14,1.14,0,0,1,.08.47v.31h-5.44v-.15a2.77,2.77,0,0,0,.15-1.09,2.58,2.58,0,0,0-.54-1.63,1.93,1.93,0,0,0-1.63-.7,2.11,2.11,0,0,0-2,1.55v1.4a2.49,2.49,0,0,0,1.09,1.4v.15l-1.4.39a4.67,4.67,0,0,0-1.24.55h-1.56a5.17,5.17,0,0,0-1.08.93c-.52.52-1.07,1.09-1.64,1.71s-1.11,1.24-1.63,1.86-.88,1-1.08,1.24v1.25c.1.31.41.46.93.46a.89.89,0,0,0,.77-.46v-.78a4.65,4.65,0,0,0-.93-.78v-.15a4.75,4.75,0,0,1,1.56-1.09,9.38,9.38,0,0,0,1.7-1.09,2.35,2.35,0,0,1,.86.16,2.34,2.34,0,0,0,.85.15,1.66,1.66,0,0,0,1.56-.77,3.54,3.54,0,0,1,1.24-1.25,5.8,5.8,0,0,0,1.71-.23,6.15,6.15,0,0,1,1.71-.23h1.09l.15,1.4a2.82,2.82,0,0,0,1.55,1.7h1.56a2.09,2.09,0,0,0,1.32-1.16,3.06,3.06,0,0,0,.23-1.79l.16-.15H196l.16.15v1.09a4.82,4.82,0,0,0,.93,1.48,2,2,0,0,0,1.55.7,2.76,2.76,0,0,0,1.25-.32,5.72,5.72,0,0,0,1-1.24,6.08,6.08,0,0,0,.38-1.71l.16-.15h4.35l.16.15v1.09a4.35,4.35,0,0,0,.85,1.55,2.25,2.25,0,0,0,1.79.63A2.5,2.5,0,0,0,210,199a2.19,2.19,0,0,0,.93-1.16l.15-1.56.16-.15h4.35l.15.15v1.09a4.37,4.37,0,0,0,.86,1.55,2.23,2.23,0,0,0,1.78.63,2.33,2.33,0,0,0,1.4-.63,2.64,2.64,0,0,0,.93-1.08l.16-1.56.16-.15h4.35a7.79,7.79,0,0,0,.62,2.41c.31.67,1,1,2.17,1a2.57,2.57,0,0,0,1.4-.39,2.4,2.4,0,0,0,.93-1.17l.16-1.4c0-.1.1-.15.31-.15a7.31,7.31,0,0,1,2,.31,7.26,7.26,0,0,0,2,.31l.15.16c.11,1.55,1,2.33,2.8,2.33a3.27,3.27,0,0,0,2.17-.78h.32a1.88,1.88,0,0,1,1.39.46,2.89,2.89,0,0,0-1.55,1.4v2.49a3.51,3.51,0,0,0,1.24,1.24h2.33a2.83,2.83,0,0,0,1.56-1.4v-2.33h.15a20.11,20.11,0,0,1,2.18,1.25,10.71,10.71,0,0,0,2.17,1.08,3,3,0,0,0,1.4,1.4,5.38,5.38,0,0,1,1.24.31,5.22,5.22,0,0,0,1.17.86,2.84,2.84,0,0,1,1,.85,3.06,3.06,0,0,0,1,2.33,5.07,5.07,0,0,0,2.56.78l1.4,1.4a5.33,5.33,0,0,0,.54,2.17,3.29,3.29,0,0,0,1.79,1.09,11.89,11.89,0,0,1,3.19,4.35,50.34,50.34,0,0,0,2.4,4.82v.77a5.22,5.22,0,0,0-1.63.55,1.54,1.54,0,0,0-.7,1.47c0,1.45.62,2.18,1.87,2.18a3.75,3.75,0,0,0,2-.94c.31.32.46.52.46.63a6.66,6.66,0,0,0,.16,1.39,3.56,3.56,0,0,0,.46,1.25v.77c.11.32.26.81.47,1.48a20.43,20.43,0,0,1,.54,2.18q.24,1.16.39,2.25a11.55,11.55,0,0,1,.16,1.55v.78a1,1,0,0,1-.47.62c-.21.1-.31.36-.31.78v.31l.78.93v3.11a10.91,10.91,0,0,1-.55,3.41,16.32,16.32,0,0,0-.69,3.58l-.78,1.55-.16,1.56a3.94,3.94,0,0,1-.39.62,4.14,4.14,0,0,0-.38.62l-.16,1.55c-.1.21-.39.73-.85,1.56s-.94,1.73-1.4,2.71-.91,1.87-1.32,2.65a6,6,0,0,0-.62,1.32h.15a15.41,15.41,0,0,0,1.56-2q.93-1.41,1.86-3c.62-1.09,1.16-2.15,1.63-3.19s.86-1.86,1.17-2.48l.15-1.4a4.17,4.17,0,0,0,.93-2.8l.78-1.55a4.74,4.74,0,0,1,.23-2.33,15.59,15.59,0,0,0,.7-2.18,12.52,12.52,0,0,0,.24-3.11c-.06-1-.08-2.07-.08-3.1V234.7c0-1-.05-2.44-.16-4.2a7.94,7.94,0,0,0-.85-1.55,6.54,6.54,0,0,1-.86-1.71,4,4,0,0,1-.23-1.48c.05-.25-.18-.7-.7-1.32l.16-.77a.48.48,0,0,1,.54,0,1,1,0,0,0,.54.15,2.08,2.08,0,0,0,1.48-.7,2.21,2.21,0,0,0,.7-1.63,2.06,2.06,0,0,0-2.33-2.33,2.56,2.56,0,0,0-1.09.16,2.49,2.49,0,0,0-.54.85.76.76,0,0,1-.7.54c-.11,0-.26-.23-.47-.69a3.76,3.76,0,0,0-.46-.86v-.78a1.59,1.59,0,0,1,.31-.46,2,2,0,0,0,.31-.47v-1.71a2,2,0,0,0-1.4-1.4l-1.86-.15c-1-.83-1.51-1.55-1.4-2.18a2.09,2.09,0,0,0-.47-1.7,10.59,10.59,0,0,0-1.86-1.71c-1.14-.94-2-1.66-2.49-2.18a3,3,0,0,0-2.8-2.33,4.26,4.26,0,0,0-1.08-.78,2.29,2.29,0,0,1-.94-.77l-.15-1.71c0-.21-.18-.49-.54-.86s-.65-.54-.86-.54h-2.33l-.62.31h-.16a1.66,1.66,0,0,1-.77-.62V199l.31-.62V195.7a1.66,1.66,0,0,0-1-1,4.37,4.37,0,0,0-1.32-.23,5.26,5.26,0,0,0-1.09.08,5.16,5.16,0,0,0-.93.38,4.71,4.71,0,0,0-.47.86,8.37,8.37,0,0,0-.31,1,6.23,6.23,0,0,1-3.26-.93,29.58,29.58,0,0,0-2.95-1.56h-3.27l-.46-.15V194a2.3,2.3,0,0,1,.23-.39,1.76,1.76,0,0,0,.23-.38V191a2.75,2.75,0,0,0-.69-.78,5.3,5.3,0,0,0-.86-.62h-1.86a2.84,2.84,0,0,0-1.56,1.56v2.17h-5v-.15a2.73,2.73,0,0,0,.16-1.09v-.62l-.62-1.25-1.25-.62h-1.4a3.44,3.44,0,0,0-1.71,1.71v2h-5v-.15a2.56,2.56,0,0,0,.16-1.09v-.62a2.29,2.29,0,0,0-2.49-1.87,5.27,5.27,0,0,0-1.4.31,3.76,3.76,0,0,0-1.08,1.56v1.86h-5v-.15a2.77,2.77,0,0,0,.15-1.09v-.62a2.49,2.49,0,0,0-1.09-1.4,3,3,0,0,0-1.55-.47h-.62a2.16,2.16,0,0,0-1.71,1.87v1.86h-5a.62.62,0,0,1,0-.62,1.41,1.41,0,0,0,.15-.62,2.68,2.68,0,0,0-.31-1.24c-.21-.21-.46-.44-.77-.7a3.07,3.07,0,0,0-.94-.55H194A2.46,2.46,0,0,0,191.35,192.13Zm-12.74,14.45c0,.41.26.62.78.62a.55.55,0,0,0,.62-.62c0-.42-.26-.62-.78-.62h-.31l-.31.31Zm3.58-4.66v.15a2.22,2.22,0,0,0,2.17,1.71c1.24,0,1.86-.67,1.86-2a1.73,1.73,0,0,0-1.55-1.86h-.93A2.09,2.09,0,0,0,182.19,201.92Zm4.66,4.66a2,2,0,0,0,2,2,2.48,2.48,0,0,0,1.55-.63,1.76,1.76,0,0,0,.78-1.39,1.93,1.93,0,0,0-.94-1.71,2.64,2.64,0,0,0-2.48,0A2.58,2.58,0,0,0,186.85,206.58Zm1.71,9.94c0,.31.1.47.31.47H189l.31-.31v-.16l-.31-.31h-.15A.27.27,0,0,0,188.56,216.52Zm.15,58.73v.15l.31.31.31-.31v-.15l-.31-.31Zm2.8-73.33a2.06,2.06,0,0,0,2.33,2.33c1.65,0,2.48-.78,2.48-2.33a2.75,2.75,0,0,0-.31-1.25,2.67,2.67,0,0,0-2.17-1.24h-.47a13,13,0,0,0-1.47.93Q191.51,200.68,191.51,201.92Zm1.71,29.36v.47a1.06,1.06,0,0,0,.77.31.9.9,0,0,0,.62-.31v-.94a1.06,1.06,0,0,0-.77-.31h-.16l-.46.47Zm0,9.79v.46c.31.31.51.47.62.47a.66.66,0,0,0,.39-.08.3.3,0,0,1,.23-.08.71.71,0,0,0,.47-.77.93.93,0,0,0-.47-.78.27.27,0,0,1-.23-.08.36.36,0,0,0-.24-.08.64.64,0,0,0-.39.08.28.28,0,0,1-.23.08l-.15.31Zm0,9.78v.47a.86.86,0,0,0,.62.31.89.89,0,0,0,.77-.46v-.78a1,1,0,0,0-.77-.31h-.16l-.46.46Zm.15-39.3c0,.31,0,.46.16.46h.62l.15-.31v-.15c0-.21-.15-.31-.46-.31S193.37,211.34,193.37,211.55Zm0,9.94a.55.55,0,0,0,.62.62h.16l.31-.31v-.15c0-.52-.16-.78-.47-.78A.55.55,0,0,0,193.37,221.49Zm0,39.15c0,.21.16.31.47.31a.4.4,0,0,0,.46-.46c0-.21-.15-.31-.46-.31h-.16l-.31.31Zm3.11-54.22c0,1.35.72,2,2.17,2s2.33-.67,2.33-2V206a2.34,2.34,0,0,0-.93-1.17,2.57,2.57,0,0,0-1.4-.39,2.51,2.51,0,0,0-1.55.47,1.54,1.54,0,0,0-.39.54,4.39,4.39,0,0,1-.23.55Zm.93,39.46v.62l.31.63.62.31a1.45,1.45,0,0,0,.62.15,1,1,0,0,0,.63-.15,1.85,1.85,0,0,0,.93-1.56,1.75,1.75,0,0,0-.93-1.4,1,1,0,0,0-.63-.15,1.45,1.45,0,0,0-.62.15l-.62.32-.31.62Zm.16-9.63v.47a.92.92,0,0,0,.62.62h.93c.1,0,.31-.16.62-.47a1.22,1.22,0,0,0,.16-.77.94.94,0,0,0-.16-.63,1.21,1.21,0,0,0-1.09-.46.91.91,0,0,0-.62.15c-.31.31-.46.52-.46.62Zm0,19.27a1.24,1.24,0,0,0,.15.77l.62.62h.31c1,0,1.56-.46,1.56-1.39v-.32l-.78-.77h-.93l-.62.31-.31.62Zm.46-28.9c0,.31.21.46.62.46.11,0,.31-.15.63-.46v-.16a.92.92,0,0,0-.16-.62h-.78A1.06,1.06,0,0,0,198,226.62Zm.31,38.84v.15l.31.31h.16c.31-.31.47-.51.47-.62L199,265h-.15a.45.45,0,0,1-.31.16C198.39,265.15,198.34,265.25,198.34,265.46Zm3.27,32a4,4,0,0,0-.47.7c-.21.37-.42.75-.62,1.17a13.43,13.43,0,0,0-.55,1.24,3.55,3.55,0,0,0-.23.78l.31-.16a10.49,10.49,0,0,0,2-2.87c.83-1.5,1.4-2.62,1.71-3.34a3.69,3.69,0,0,1,.16-1.79,5.15,5.15,0,0,1,.77-1.63v-1.4c0-.1-.1-.15-.31-.15h-.15a6.54,6.54,0,0,0-1.95,3.41A25.52,25.52,0,0,0,201.61,297.46Zm-.47-95.54v.62a2.7,2.7,0,0,0,2.64,1.86h.31a2.8,2.8,0,0,0,.93-.54c.31-.26.57-.49.78-.7a4.83,4.83,0,0,0,.31-1.4v-.47a2.29,2.29,0,0,0-2.48-1.86,4.76,4.76,0,0,0-1.4.31,6.08,6.08,0,0,0-.86,1A2.39,2.39,0,0,0,201.14,201.92Zm.62,48.93v.63a1.9,1.9,0,0,0,1.4,1.39h1.4a1.85,1.85,0,0,0,1.24-1.39v-1.25a3,3,0,0,0-.7-.77,5.54,5.54,0,0,0-.85-.63h-.47a1.93,1.93,0,0,0-2,1.4Zm.31-9.63v.62l.31.62c.21.11.44.21.7.32a2,2,0,0,0,.7.15,1.53,1.53,0,0,0,1.4-.78,2.68,2.68,0,0,0,.15-1.08v-.31a1.85,1.85,0,0,0-1.24-1.25h-.78a1.9,1.9,0,0,0-1.24,1.09Zm.16,19.11a1.24,1.24,0,0,0,.23.78,6,6,0,0,0,.54.62,1,1,0,0,0,.63.15,1.45,1.45,0,0,0,.62-.15l.62-.31.31-.62V260a2.09,2.09,0,0,0-.93-.93h-.94l-.62.31a1.91,1.91,0,0,1-.31.47A.62.62,0,0,0,202.23,260.33Zm4-54.06a1.92,1.92,0,0,0,2.17,2.17c1.56,0,2.33-.67,2.33-2V206a2.4,2.4,0,0,0-.93-1.17,2.59,2.59,0,0,0-1.4-.39,2.51,2.51,0,0,0-1.55.47l-.62.93Zm0,49.4a2.66,2.66,0,0,0,1.08,2,4.9,4.9,0,0,0,1.4.31,2.49,2.49,0,0,0,1.09-.31,2.46,2.46,0,0,0-.16-4.19,2.45,2.45,0,0,0-1.08-.32,2.49,2.49,0,0,0-1.09.32A2.67,2.67,0,0,0,206.27,255.67Zm.46-11.19a2.55,2.55,0,0,0-.31,1.4c0,1.66.23,2.72.7,3.19l2.56,2.56a3.6,3.6,0,0,1,1.48.86,3.7,3.7,0,0,0,1.48.85h1.71q.3-.15.69-.39a3.35,3.35,0,0,0,.7-.54H221a3.49,3.49,0,0,0,2,.77,2.52,2.52,0,0,0,2.17-1.08,4.66,4.66,0,0,0,1.79-.93c.67-.52,1.34-1.07,2-1.64s1.29-1.13,1.86-1.71,1-1,1.32-1.32a2.53,2.53,0,0,0,.31-.38q.15-.24-.15-.24l-2.18,1.56c-.52.41-1,.8-1.55,1.16a8.87,8.87,0,0,1-1.09.7,8.57,8.57,0,0,1-2,.31,1.32,1.32,0,0,1-1.16-.54,1.52,1.52,0,0,0-1.32-.55,2.54,2.54,0,0,0-2.18,1.09h-4.82a6.5,6.5,0,0,0-1.7-1.24h-1.71a5.4,5.4,0,0,0-.55.31,1,1,0,0,1-.54.15l-1.09-1.08a1.9,1.9,0,0,1,.23-.78,2.34,2.34,0,0,0,.24-1.09c0-1.14-.68-1.91-2-2.33l-.16-.31v-5.59l.62-.62c.11-.1.16-.36.16-.78v-.15l-.78-.94v-5l-.31-.15c-.21,0-.52.23-.93.7a5.14,5.14,0,0,0-.78,1Zm1.09,20.82v.31l.31.31h.78c.31,0,.46-.2.46-.62a.64.64,0,0,0-.15-.46l-.62-.31h-.16C208,264.53,207.82,264.79,207.82,265.3Zm3.11-63.38v.62a2.69,2.69,0,0,0,2.64,1.86h.31a2.8,2.8,0,0,0,.93-.54c.31-.26.57-.49.78-.7a5.19,5.19,0,0,0,.31-1.4v-.47a3.17,3.17,0,0,0-.78-1.08,2.86,2.86,0,0,0-1.09-.78h-1.39A2.27,2.27,0,0,0,210.93,201.92Zm3.57,31.69v5.28c0,.11-.1.26-.31.47-1.45-.21-2.38.26-2.8,1.4v1.39a3.18,3.18,0,0,0,.94,1.09,5.76,5.76,0,0,0,1.86.31,3.36,3.36,0,0,1,1.86.62v.31l-.31.63v1.7a2.26,2.26,0,0,0,2.49,1.71c1.14,0,1.86-.36,2.17-1.08a4.37,4.37,0,0,0,.31-2.33l-.31-.78.16-.31h2.8l.62-.31,1.09-.16a7,7,0,0,1,2.33-1.4,6.45,6.45,0,0,0,1.7-4.5,6,6,0,0,0-.31-2.18,3.22,3.22,0,0,0-.85-1.24,10,10,0,0,0-1.17-.85,4.43,4.43,0,0,1-1.24-1.32,2.46,2.46,0,0,0-1.09-.31h-9.32a.32.32,0,0,0-.23.07.28.28,0,0,1-.23.08.7.7,0,0,0-.31.85A3.51,3.51,0,0,1,214.5,233.61Zm-3.11,26.72V261a2.21,2.21,0,0,0,2.18,1.56c1.34,0,2-.73,2-2.18a1.79,1.79,0,0,0-2-2,2,2,0,0,0-2.18,1.4Zm4.35-4.66v.47a2.65,2.65,0,0,0,2.49,2,2.6,2.6,0,0,0,2.48-1.87v-.46c0-1.76-.83-2.65-2.48-2.65A2.2,2.2,0,0,0,215.74,255.67Zm.31-49.4a2.06,2.06,0,0,0,2.33,2.33,2,2,0,0,0,1.56-.7,2.23,2.23,0,0,0,.62-1.48V206a2.54,2.54,0,0,0-2.18-1.71,5.62,5.62,0,0,0-1.7.62l-.63.93Zm1.4,58.26v1.08l.47.47h.78c.31-.31.46-.52.46-.62v-.78c0-.31-.26-.46-.78-.46h-.31Zm3.26-62.61a2.47,2.47,0,0,0,2,2.48h.47a2.29,2.29,0,0,0,2.49-1.86v-1.25l-.62-1.24-1.25-.62h-1.4A2.27,2.27,0,0,0,220.71,201.92Zm.32,58.72a1.81,1.81,0,0,0,.15.78,2.39,2.39,0,0,0,2,1.09c1.35,0,2-.73,2-2.18a2.73,2.73,0,0,0-.47-1.4,3.18,3.18,0,0,0-1.7-.62,1.75,1.75,0,0,0-1.48.7A2.6,2.6,0,0,0,221,260.64Zm4.81-54.22v.78a2.82,2.82,0,0,0,.7.77,4.57,4.57,0,0,0,.86.63H229a2,2,0,0,0,1.4-1.4v-1.4a1.92,1.92,0,0,0-.86-1.09,2.39,2.39,0,0,0-1.32-.46,2.15,2.15,0,0,0-2.33,1.55Zm0,49.41v.46a2.49,2.49,0,0,0,1.09,1.4,2.73,2.73,0,0,0,1.09.16,2.08,2.08,0,0,0,1.55-.63l.47-.93V255.2a2.84,2.84,0,0,0-1.71-1.55h-.47a2.07,2.07,0,0,0-.93.16A2.64,2.64,0,0,0,225.84,255.83Zm.47-10a2.75,2.75,0,0,0,.31,1.25l.62.31a1.41,1.41,0,0,0,.62.15c.62,0,1.14-.41,1.56-1.24v-.16A1.69,1.69,0,0,0,229,245l-.62-.31h-.93C226.67,245.05,226.31,245.47,226.31,245.88Zm.93,19.42q0,.78.93.78h.31a.72.72,0,0,0,.47-.78.91.91,0,0,0-.47-.77h-.77A.91.91,0,0,0,227.24,265.3Zm3.26-63.38v.77a2.82,2.82,0,0,0,1.56,1.71h1.86a2.54,2.54,0,0,0,1.55-2.64v-.93c0-.21-.18-.49-.54-.86a1.5,1.5,0,0,0-.85-.54h-2a2.82,2.82,0,0,0-1.56,1.71Zm.62,58.72v.16A1.82,1.82,0,0,0,233,262h.46a1.9,1.9,0,0,0,1.09-1.24V260a1.45,1.45,0,0,0-.7-.78l-.85-.46h-.16a1.24,1.24,0,0,0-.77.15A2.56,2.56,0,0,0,231.12,260.64Zm.31-9.47v.46l.78.78h1.24l.78-.78v-1.09l-.31-.62-.93-.46h-.31l-.93.46-.32.62Zm3.89-44.44v.47a2.41,2.41,0,0,0,1.16,1.4,3.7,3.7,0,0,0,1.79.46h.47a4.75,4.75,0,0,0,.85-.62,2.82,2.82,0,0,0,.7-.78v-2a.86.86,0,0,0-.39-.62,7.18,7.18,0,0,1-.7-.62,3.34,3.34,0,0,0-1.24-.15C236.2,204.25,235.32,205.08,235.32,206.73Zm.93,48.94a1.32,1.32,0,0,0,.93,1.4h1.09a2.89,2.89,0,0,0,.78-.78V256a2.84,2.84,0,0,0-.31-1.24l-.62-.31h-.78l-.62.31a1.91,1.91,0,0,1-.31.46A.62.62,0,0,0,236.25,255.67Zm1.09,9.63a.55.55,0,0,0,.62.62h.16l.31-.31v-.15a.67.67,0,0,0-.16-.47h-.78l-.15.16Zm3.57-54.22a2.05,2.05,0,0,0,1.56,2.18h1.24A1.87,1.87,0,0,0,245,212v-1.39a1.6,1.6,0,0,0-.85-1,2.57,2.57,0,0,0-1.17-.39,1.92,1.92,0,0,0-2,1.4Zm.93,49.56a.65.65,0,0,0,.16.47l.62.31h.16a.91.91,0,0,0,.77-.47v-.62l-.46-.46h-.78A.9.9,0,0,0,241.84,260.64Zm5.75-51.27a4.36,4.36,0,0,0,1.48-.31,1.43,1.43,0,0,0,1-1.09v-2.48a1.63,1.63,0,0,0-1-1,4.08,4.08,0,0,0-1.32-.23,5.46,5.46,0,0,0-1.09.07,6.35,6.35,0,0,0-.93.39c-.11.21-.21.39-.31.55a3.35,3.35,0,0,0-.31.54v1.86A2.27,2.27,0,0,0,247.59,209.37Zm-1.24,6.84V217c.1.41.47.72,1.09.93h1.08c.63-.21,1-.52,1.09-.93v-1.4l-.93-.93a.86.86,0,0,0-.62-.16,1.8,1.8,0,0,0-.7.16,6.64,6.64,0,0,0-.7.31l-.31.62Zm.93,59.19v.16l.31.31h.31l.31-.31v-.16c0-.41-.15-.62-.46-.62S247.28,275,247.28,275.4Zm.16-9.79c0,.31.05.47.15.47h.16a.6.6,0,0,0,.46-.62.27.27,0,0,0-.31-.31A.4.4,0,0,0,247.44,265.61Zm2.64-54.06v.78a3.78,3.78,0,0,0,.77,1.16,9.36,9.36,0,0,0,1.25.7h.46a2.29,2.29,0,0,0,2.49-1.86v-1.25l-.62-1.24-.93-.62h-1.87a2.84,2.84,0,0,0-1.55,1.71Zm.93,9.94a2,2,0,0,0,1.55,1.55h.63a1.91,1.91,0,0,0,1.39-1.39v-.78c-.41-.93-1-1.4-1.71-1.4h-.31a3.66,3.66,0,0,0-1.24.78A4.88,4.88,0,0,0,251,221.49Zm.47,49.1v.15l.31.62.62.31h.15a1,1,0,0,0,.63-.15l.46-.47.16-.62-.16-.62c-.31-.31-.52-.47-.62-.47h-.78l-.54.55A.91.91,0,0,0,251.48,270.59Zm0,9.47v.47a2,2,0,0,0,.93.93h.78c.41-.1.72-.47.93-1.09v-.31c-.21-.83-.62-1.24-1.25-1.24a1.24,1.24,0,0,0-.77.15,3.6,3.6,0,0,0-.62.78Zm.31-19.42V261a3.37,3.37,0,0,0,.77.62l.47-.15c.21-.1.31-.36.31-.78v-.31l-.47-.46h-.15c-.52,0-.83.15-.93.46Zm.15-29.52q0,.78.93.78H253a.14.14,0,0,0,.16-.15l.15-.47-.15-.47-.16-.15h-.78l-.31.31Zm5.6-12.27h.62a4.75,4.75,0,0,0,.85-.62,2.82,2.82,0,0,0,.7-.78v-1.71a2.57,2.57,0,0,0-2.17-1.71q-2,.32-2.34,1.56v2a2.27,2.27,0,0,0,1.56,1.24Zm-1.71,7.3v.62a1.89,1.89,0,0,0,1.39,1.4h.94a1.82,1.82,0,0,0,1.24-1.86v-.47l-.47-.93a1.8,1.8,0,0,0-1.24-.62,2.16,2.16,0,0,0-1.09.39,1.69,1.69,0,0,0-.77.85Zm0,49.41c0,.41.31.83.93,1.24a1.36,1.36,0,0,0,1.24,0l.93-.93v-.93a1.46,1.46,0,0,0-.77-.94c-.21,0-.34,0-.39-.07s-.18-.08-.39-.08C256.34,273.85,255.83,274.42,255.83,275.56Zm0,9.47a1.37,1.37,0,0,0,1.55,1.56.62.62,0,0,0,.39-.08.62.62,0,0,1,.39-.08l.77-.77v-1.09l-.31-.62-.93-.47h-.15C256.39,283.48,255.83,284,255.83,285Zm.77-49.09v.47a3.67,3.67,0,0,0,.62.77h.32a2.64,2.64,0,0,0,.77-.15c.31-.1.47-.26.47-.47v-.78c0-.1-.16-.31-.47-.62a1.36,1.36,0,0,0-1.24,0l-.47.47Zm0,29.67v.47a.73.73,0,0,0,.78.47h.16l.62-.32.15-.31v-.77c-.31-.31-.52-.47-.62-.47h-.47a.62.62,0,0,0-.62.47Zm.47-19.73V246l.31.31h.16c.31,0,.46,0,.46-.16v-.77h-.78l-.15.31ZM260,221.49a2.31,2.31,0,0,0,.47,1.17,2,2,0,0,0,.93.85H263a2.49,2.49,0,0,0,1.56-2,5.3,5.3,0,0,1-.24-.93,1.44,1.44,0,0,0-.38-.78l-.78-.39a1.9,1.9,0,0,0-.78-.23,2.32,2.32,0,0,0-1.55.7A2.14,2.14,0,0,0,260,221.49Zm.47,9.79v.15a2.44,2.44,0,0,0,1.08,1.4.62.62,0,0,1,.39.08.62.62,0,0,0,.39.08,1.61,1.61,0,0,0,1.71-1.4v-.31a2.23,2.23,0,0,0-.93-1.71,1.8,1.8,0,0,0-.78-.16,2.22,2.22,0,0,0-.93.16A2,2,0,0,0,260.49,231.28Zm.93,47.38a1.73,1.73,0,0,1-.31.47,1.53,1.53,0,0,0-.31.47v1.24c.1.41.46.72,1.09.93h.93a5.18,5.18,0,0,0,.54-.31,1,1,0,0,1,.55-.16,3.73,3.73,0,0,1,1,1.33c.37.67.65,1.21.86,1.63a2.76,2.76,0,0,0,.62,2.33,5.54,5.54,0,0,1,1.24,2,17.67,17.67,0,0,1,.16,2.33v2.33a7.27,7.27,0,0,1-1.24,4.35A8.57,8.57,0,0,0,265,301.5h.16a9.68,9.68,0,0,0,3-4.19q1.25-3,1.86-4.82v-1.4c0-.82,0-1.68-.07-2.56s-.13-1.73-.24-2.56a17.21,17.21,0,0,1-1.47-2.72c-.26-.68-.55-1.35-.86-2A16.38,16.38,0,0,0,266,279a35.16,35.16,0,0,0-2.87-3.41,8.56,8.56,0,0,1,.08-2.64,14,14,0,0,0,.23-2.49v-.31a6.64,6.64,0,0,1-.31-.7c-.11-.26-.26-.39-.47-.39h-.15a2.39,2.39,0,0,0-1.56,2.18v6.52a1.58,1.58,0,0,0,.24.39,1.67,1.67,0,0,1,.23.39Zm-.31-37.59v.31a1.81,1.81,0,0,0,1.09.93h.15a2.29,2.29,0,0,0,.93-.31l.31-.62v-.62a6.55,6.55,0,0,0-.62-.94.32.32,0,0,1-.23-.07.28.28,0,0,0-.23-.08,1.24,1.24,0,0,0-1.4,1.4Zm.15,48.94v.15l.31.47.32.15H263c.31-.31.47-.51.47-.62v-.78c0-.2-.13-.36-.39-.46a2,2,0,0,0-.7-.16h-.15l-.63.31-.31.62Zm2.18-21.91v.15l.15-.15v-.16Zm.93,34.33.16-.15h-.16Zm1.4-66.49a3,3,0,0,0,.15.93,1,1,0,0,0,.63.62h1.08a1.58,1.58,0,0,0,1.09-1.55c0-.41-.31-.83-.93-1.24a.87.87,0,0,0-.62-.16.86.86,0,0,0-.62.16,4,4,0,0,0-.78.93Zm0,39.31a1.66,1.66,0,0,0,.78,1.55.91.91,0,0,0,.62.15.93.93,0,0,0,.62-.15l.93-.93v-.93a1.47,1.47,0,0,0-.78-.94h-1.39A1.21,1.21,0,0,0,265.77,275.25Zm.62-29.52v.46c.1.42.41.62.93.62h.16a1.7,1.7,0,0,0,.62-1.08.62.62,0,0,0-.16-.47l-.62-.31h-.15a.72.72,0,0,0-.78.47Zm.16,20v.15l.31.31h.31a.93.93,0,0,0,.62-.15v-.78l-.16-.31h-.77A1.06,1.06,0,0,0,266.55,265.77Zm4.5,24.24.31.62.31.15h.78a1.69,1.69,0,0,0,.62-1.09.9.9,0,0,0-.46-.77h-.94c-.21,0-.36.13-.46.39A1.8,1.8,0,0,0,271.05,290Zm5-54.07v.47c0,.1.16.31.47.62h.78a1.74,1.74,0,0,0,.62-1.09.93.93,0,0,0-.47-.78.32.32,0,0,1-.23-.07A.28.28,0,0,0,277,235c-.21,0-.34,0-.39.08a.34.34,0,0,1-.24.07l-.31.47Z"/><path class="b" d="M304.92,187.16A13.88,13.88,0,0,1,307,187h3.49a4.38,4.38,0,0,1-1.16,1.09c-.37.21-.55.72-.55,1.55a2.55,2.55,0,0,0,2,2.64,3,3,0,0,1-2.25.31,7.31,7.31,0,0,0-2.1-.31,2.29,2.29,0,0,0-1.4.47,2.48,2.48,0,0,0-.46.62,2.36,2.36,0,0,1-.47.62,3.45,3.45,0,0,0-1.63.62c-.67.42-1.4.91-2.17,1.48a24.19,24.19,0,0,0-2.1,1.71,5.57,5.57,0,0,0-1.24,1.47.28.28,0,0,0,.31.32,18.74,18.74,0,0,1,2.25-1.4,12.79,12.79,0,0,0,2.1-1.4,2.7,2.7,0,0,0,1-.23,7,7,0,0,0,1-.55h1.08l.55.31a3.35,3.35,0,0,0,.54.31h.62c.83,0,1.32-.15,1.48-.46a3.56,3.56,0,0,1,1-1.09h.77a14.12,14.12,0,0,1,1.95.39,15.26,15.26,0,0,1,1.94.54,3.23,3.23,0,0,0,2.48,1.25,3.23,3.23,0,0,1,2.49,1.24v2a3.59,3.59,0,0,0,1.4,1.32,4.91,4.91,0,0,0,2,.08,11,11,0,0,1,.7.93,14,14,0,0,1,1,1.71c.31.62.59,1.22.85,1.78s.44,1,.55,1.17a4,4,0,0,0,.46,2.41,5.09,5.09,0,0,1,.62,2.41c0,.1-.15.18-.46.23a5.36,5.36,0,0,1-.62.08,2.92,2.92,0,0,0-.78,1.08v.62a2.87,2.87,0,0,0,1.86,1.56l.16.15v6.06l-.16.31a9.2,9.2,0,0,0-.93.39,1.18,1.18,0,0,0-.62.7v.78a1.18,1.18,0,0,0,.62.7,9.2,9.2,0,0,0,.93.39l.16.31v6.37l-.16.15a7.36,7.36,0,0,0-.93.39,1.16,1.16,0,0,0-.62.7v.78a1.14,1.14,0,0,0,.62.69,6.14,6.14,0,0,0,.93.39l.16.16v6.52l-.16.16a6.14,6.14,0,0,0-.93.39,1.16,1.16,0,0,0-.62.7v.77a1.16,1.16,0,0,0,.62.7,6.14,6.14,0,0,0,.93.39l.16.31v6.22l-.16.31-.77.15-.78.78v1.09a1.18,1.18,0,0,0,.62.7,2.13,2.13,0,0,0,.93.23l.16.31v6.06a1.61,1.61,0,0,1-1.09.62c-.52.1-.78.57-.78,1.4v.31a2.44,2.44,0,0,0,1.71,1.4l.16.15v6.06l-.16.16a2,2,0,0,0-.93.23,1.16,1.16,0,0,0-.62.7v1.24a1.16,1.16,0,0,0,.62.7,2,2,0,0,0,.93.23l.16.31v6.68l-.16.16a3.36,3.36,0,0,0-1.08.62v1.09a1.49,1.49,0,0,0,1.08.47l.16.15v8.39a5,5,0,0,1-.7,2.49,4.22,4.22,0,0,0-.54,2.64l-.94,1.86a10.88,10.88,0,0,0-.77,1.71c0,.11.1.16.31.16s.54-.39,1-1.17a10.45,10.45,0,0,0,.85-1.63,4.92,4.92,0,0,0,.91-1.55,22.68,22.68,0,0,0,.8-2.41c.24-.88.45-1.71.65-2.49a8,8,0,0,0,.28-1.63V209.84a4,4,0,0,0-.31-1.55c-.21-.52-.41-1-.62-1.4V206a1.67,1.67,0,0,1,.23-.39,2,2,0,0,0,.24-.39v-1.87a1.63,1.63,0,0,0-.92-1,3,3,0,0,0-1.23-.38l-.15-.16a9.86,9.86,0,0,0-2.68-4,11.84,11.84,0,0,0-3.9-2.88l-.15-.31-.16-1.39a1.86,1.86,0,0,0-1.22-1.09h-2.49l-.93.77h-.16a2.25,2.25,0,0,1-.85-.23c-.36-.15-.65-.28-.86-.39a10.06,10.06,0,0,1,.94-.77,2.59,2.59,0,0,0,.77-.78v-2.18a1.8,1.8,0,0,0-.77-.85,2.08,2.08,0,0,1-.78-.7h2.31l.61.31h2.31a1.34,1.34,0,0,0,.62.39.68.68,0,0,1,.46.39v2.8l.46.69a2.06,2.06,0,0,0,.77.55h2.31a4.42,4.42,0,0,0,.77-.55c.3-.25.56-.49.77-.69h.46l.92.93a2.32,2.32,0,0,1-.84.77,2.06,2.06,0,0,0-.85,1.09v1.56a3.19,3.19,0,0,0,1,1.32,2.34,2.34,0,0,0,1.46.54,1.58,1.58,0,0,0,1.46-.62,5.07,5.07,0,0,1,1.16-1.24,11.16,11.16,0,0,1,1.24,1.39v.47c-.21.21-.44.47-.7.78a2.8,2.8,0,0,0-.54.93v1.09c.53,1.14,1,1.68,1.44,1.63a22.3,22.3,0,0,1,2.26-.08c.21,0,.4.16.56.47s.29.57.4.77a3.43,3.43,0,0,0,.39,2.41,2.6,2.6,0,0,1,.54,1.63v86.54a4.23,4.23,0,0,1-.62,2.25,3.38,3.38,0,0,0-.47,2.25,22.35,22.35,0,0,1-2.09,3.81,44.7,44.7,0,0,1-3.34,4.43,29.51,29.51,0,0,1-3.89,3.8,7.18,7.18,0,0,1-3.73,1.79l-.62.47c-.41.1-.78.18-1.09.23s-.67.13-1.08.23l-.47.31a3.13,3.13,0,0,0-1.09.24,3.23,3.23,0,0,1-1.08.23h-7.46a3.28,3.28,0,0,1-1.09-.23,3.08,3.08,0,0,0-1.09-.24l-.46-.31a12.43,12.43,0,0,1-4.82-1.55,18.06,18.06,0,0,1-3.88-3,38.43,38.43,0,0,1-3.27-3.73c-1-1.35-2-2.64-2.95-3.89a7.32,7.32,0,0,1-.7-1.86,12.36,12.36,0,0,0-.7-2l-.62-.62V204.25a1.5,1.5,0,0,0,.78-.94l.15-1.39a31.39,31.39,0,0,1,4.43-7,25.26,25.26,0,0,1,6.29-5.43h.16c.21,0,.31,0,.31.15a7.6,7.6,0,0,0,.47,1.09,1.39,1.39,0,0,0,.93.78h1.4a3.62,3.62,0,0,0,1.24-1.25v-1.39a1.67,1.67,0,0,0-.23-.39,1.58,1.58,0,0,1-.24-.39v-.16a3,3,0,0,0,1-.31A8.79,8.79,0,0,1,304.92,187.16Zm-9.63,7.3c0,.93.51,1.4,1.55,1.4a1.05,1.05,0,0,0,.93-.47,1.64,1.64,0,0,0,.31-.93.91.91,0,0,0-.15-.62,1.38,1.38,0,0,0-2.49,0A.91.91,0,0,0,295.29,194.46Zm4.81,5v.16a1.87,1.87,0,0,0,1.25,1.24h.31a1.33,1.33,0,0,0,1.39-1.09v-.93a1.35,1.35,0,0,0-.93-.93h-.93a1.41,1.41,0,0,0-.93.77A1.21,1.21,0,0,0,300.1,199.43Zm5,3.88v1.56l.31.62a2.29,2.29,0,0,0,1.4.47,2,2,0,0,0,1.87-1.4v-.16a2.64,2.64,0,0,0-.31-1.09,3.09,3.09,0,0,0-1.09-.77h-1.09A3.09,3.09,0,0,0,305.07,203.31Zm3.89-3.72v.77a2.82,2.82,0,0,0,1.71,1.56h1.71a3,3,0,0,0,1.39-1.4v-2.18a2.89,2.89,0,0,0-1.55-1.4h-1.71c-.62.52-1,.89-1.24,1.09A2.47,2.47,0,0,0,309,199.59Zm.62,9.32v.62a1.91,1.91,0,0,0,1.4,1.24h1.08a1.6,1.6,0,0,0,1-.85,2.75,2.75,0,0,0,.39-1.32,1.81,1.81,0,0,0-.15-.78l-.78-.78a4.19,4.19,0,0,0-1.24-.15h-.47A1.92,1.92,0,0,0,309.58,208.91Zm1.24,10.1c0,.31.21.46.62.46s.47-.21.47-.62v-.16l-.31-.31h-.16A.55.55,0,0,0,310.82,219Zm.16,58.57c0,.21.15.31.46.31a.27.27,0,0,0,.31-.31c0-.11-.1-.16-.31-.16S311,277.47,311,277.58Zm5.28-70.85a2.23,2.23,0,0,0,1.63-.7,2.39,2.39,0,0,0,.7-1.78,4.83,4.83,0,0,0-.31-1.4l-.54-.55a2.15,2.15,0,0,0-.55-.38h-2.33a2.37,2.37,0,0,0-1.24,1.39v1.87A2.54,2.54,0,0,0,316.26,206.73Zm-1.71,7.3v.47a3.18,3.18,0,0,0,.62.78,1.33,1.33,0,0,0,.93.46,1.45,1.45,0,0,0,1.56-1.08v-1.4a3.7,3.7,0,0,0-1.24-.93H316a1.89,1.89,0,0,0-1.4,1.24Zm.31,9.79v.47a1.45,1.45,0,0,0,.78.93h.93a2.09,2.09,0,0,0,.93-.93v-.78a2.09,2.09,0,0,0-.93-.93h-.93a1.45,1.45,0,0,0-.78.93Zm0,10.1c0,.52.31.88.93,1.09h.78a2.09,2.09,0,0,0,.93-.93v-.78c-.41-.62-.83-.93-1.24-.93H316c-.31.21-.57.38-.78.54S314.86,233.4,314.86,233.92Zm0,9.48v.46a2.06,2.06,0,0,0,.93.94h.78a2.06,2.06,0,0,0,.93-.94v-.77c-.41-.63-.83-.94-1.24-.94H316c-.62.21-1,.52-1.09.94Zm0,9.78v.47a2,2,0,0,0,.93.93h.78a2,2,0,0,0,.93-.93v-.78c-.41-.62-.83-.93-1.24-.93H316c-.62.21-1,.52-1.09.93Zm0,9.79a1.32,1.32,0,0,0,.93,1.4h.78a2.09,2.09,0,0,0,.93-.93v-.78c-.41-.62-.83-.93-1.24-.93H316C315.22,262.14,314.86,262.56,314.86,263Zm0,9.79v.47a1.39,1.39,0,0,0,.93.93h.78a2.09,2.09,0,0,0,.93-.93v-.78c-.41-.62-.83-.93-1.24-.93H316c-.62.21-1,.52-1.09.93Zm.16,9.79V283a1.09,1.09,0,0,0,1.08.78c.83,0,1.25-.36,1.25-1.09a1.22,1.22,0,0,0-.16-.77c-.31-.31-.52-.47-.62-.47h-.78a2.72,2.72,0,0,0-.77.78Zm4-73.33a2.79,2.79,0,0,0,.62,1.32,1.55,1.55,0,0,0,1.24.54,2.49,2.49,0,0,0,1.09-.31l.77-.78v-1.86l-.69-.7a1.37,1.37,0,0,0-1-.39,2,2,0,0,0-1.87,1.09Zm.62,9.63v.62a3.18,3.18,0,0,0,.62.78,1.81,1.81,0,0,0,.78.15h.31a6.85,6.85,0,0,0,.93-.62v-1.55l-.47-.47a2.24,2.24,0,0,0-.93-.15h-.31l-.62.31-.31.46Zm0,9.94a1.38,1.38,0,0,0,1.24,1.4h.16a.94.94,0,0,0,.69-.23l.55-.55v-1.08a2.89,2.89,0,0,0-.78-.78h-.93A1.22,1.22,0,0,0,319.68,228.79Zm0,9.79a1.38,1.38,0,0,0,1.24,1.4h.16a1.22,1.22,0,0,0,1.24-.93v-.94a2.86,2.86,0,0,0-.78-.77h-.93A1.22,1.22,0,0,0,319.68,238.58Zm0,9.79c0,.93.51,1.4,1.55,1.4a.32.32,0,0,0,.23-.08.35.35,0,0,1,.24-.08,3.44,3.44,0,0,0,.62-.78v-.93a2.72,2.72,0,0,0-.78-.77h-.93q-.63.15-.93,1.08Zm0,9.79v.15c.2.83.62,1.24,1.24,1.24a1.3,1.3,0,0,0,.78-.15,3.44,3.44,0,0,0,.62-.78v-.93a2.89,2.89,0,0,0-.78-.78h-1.09l-.54.55A1,1,0,0,0,319.68,258.16Zm0,9.78a1.48,1.48,0,0,0,.39.94,1.09,1.09,0,0,0,.85.46,1.34,1.34,0,0,0,1.4-.77v-1.25c0-.1-.16-.31-.47-.62h-1.4A1.42,1.42,0,0,0,319.68,267.94Zm0,9.79v.16a5.67,5.67,0,0,0,.62.93,2.24,2.24,0,0,0,.93.15h.31l.47-.31.31-.62v-.77a1.47,1.47,0,0,0-.93-.78h-.78c-.42.1-.73.46-.93,1.09Zm.62,9.79v.31a.72.72,0,0,0,.78.47.91.91,0,0,0,.77-.47v-.62l-.46-.47h-.94l-.15.31Zm8.54-78.3v.15a2.49,2.49,0,0,0,1.09,1.4c.1.11.36.16.78.16.72,0,1.29-.47,1.71-1.4v-.31a2.21,2.21,0,0,0-.94-1.71h-1.7A2.56,2.56,0,0,0,328.84,209.22Zm.16,58.72a1.81,1.81,0,0,0,.15.78,3.87,3.87,0,0,0,1.56,1.09l.93-.31.78-.78a1.81,1.81,0,0,0,.15-.78,2.05,2.05,0,0,0-.31-1,1.45,1.45,0,0,0-.78-.7h-1.24A1.72,1.72,0,0,0,329,267.94Zm.15-9.78v.77a3.87,3.87,0,0,0,1.56,1.09l.93-.31a1.45,1.45,0,0,0,.78-.93v-.47a1.71,1.71,0,0,0-1.09-1.71h-1.4a1.5,1.5,0,0,0-.78.93Zm.32-39.15v.46a3.18,3.18,0,0,0,.62.78,1.73,1.73,0,0,0,.77.15,1.4,1.4,0,0,0,1.25-.77v-1.25c0-.1-.16-.31-.47-.62h-1.4a1.47,1.47,0,0,0-.77.93Zm0,9.78V229a2.35,2.35,0,0,0,1.39,1.24.65.65,0,0,0,.47-.15,1.53,1.53,0,0,1,.47-.31l.31-.63v-.31a1.22,1.22,0,0,0-.94-1.24h-.77c-.42.1-.73.47-.93,1.09Zm0,19.73v.31a1.44,1.44,0,0,0,.77.94h1.09a1.89,1.89,0,0,0,1.09-1.25v-.31a3.17,3.17,0,0,0-.78-1.08h-1.4a1.41,1.41,0,0,0-.77.93Zm.15-9.78c0,.52.36.93,1.09,1.24h.15a1.27,1.27,0,0,0,1.25-1.09v-.31a1.22,1.22,0,0,0-.94-1.24h-.77c-.11,0-.31.15-.62.46A2.09,2.09,0,0,0,329.62,238.74Zm.16,38.21v1.25l.15.31.62.31h.62l.47-.31.31-.62v-.78a3.18,3.18,0,0,0-.78-.62h-.77C330.29,276.49,330.09,276.64,329.78,277Z"/><path class="b" d="M355.1,190.26a1.66,1.66,0,0,0,1.55-.77,3.79,3.79,0,0,1,.86-1.4,1.78,1.78,0,0,1,.85-.39l.93-.16a3.9,3.9,0,0,0,1.25-.54,1.86,1.86,0,0,0,1.24-.08,2.47,2.47,0,0,1,1.09-.23v.16a4.53,4.53,0,0,0-.31.77,2.4,2.4,0,0,0-.16.78,2.14,2.14,0,0,0,.78,1.63,2.49,2.49,0,0,0,1.71.7,1.63,1.63,0,0,0,1.08-.39,12.23,12.23,0,0,0,.94-.85,11.64,11.64,0,0,0-.08-1.4,11.64,11.64,0,0,1-.08-1.4h5.75a4.13,4.13,0,0,0-.47,1.86V189a2.84,2.84,0,0,0,1.87,1.87h.46a2.2,2.2,0,0,0,1.25-.32,6.6,6.6,0,0,0,1.08-.93,2.45,2.45,0,0,0,.32-1.09,2.32,2.32,0,0,0-.24-1.08,1.9,1.9,0,0,1-.23-.78h5.75a3.88,3.88,0,0,0-.47,1.71,2.2,2.2,0,0,0,2.49,2.49,1.8,1.8,0,0,0,1.16-.32,10.23,10.23,0,0,0,1-.93,2.5,2.5,0,0,0,.31-1.4v-.46a5.4,5.4,0,0,0-.31-.55,1,1,0,0,1-.15-.54h5.75l-.47.93v.62a3.46,3.46,0,0,0,.39,1.56,2.17,2.17,0,0,0,1.32,1.09h1.55q.31,0,.93-.78a7.07,7.07,0,0,0,.78-1.09v-1.24a5.4,5.4,0,0,0-.31-.55,1,1,0,0,1-.16-.54h5.75l-.46.93v1.56a2.87,2.87,0,0,0,1.55,1.71h1.87l.93-.63a4.52,4.52,0,0,1,.31-.54c.1-.16.21-.34.31-.54v-1.56a2.29,2.29,0,0,1-.31-.93h2.56a3.5,3.5,0,0,1,2.56.78v2a12.15,12.15,0,0,0,1.25,1.4h2.33a2.17,2.17,0,0,0,1.16-1.09,3.46,3.46,0,0,0,.39-1.56c0-.1.16-.15.47-.15h.15a2.46,2.46,0,0,0,1.09.39,10.79,10.79,0,0,1,1.24.23,2.36,2.36,0,0,1,1.56,1,3.25,3.25,0,0,0,1.4,1.17h3.1l.62.62a6.48,6.48,0,0,1-.07.85,5.33,5.33,0,0,0-.08.86v1.08a2.86,2.86,0,0,0,1.55,1.56h2c.21,0,.49-.21.86-.62s.64-.73.85-.94h.16c.2.11.51.29.93.55s.62.44.62.54v.16l-.78.15c-.21.21-.46.44-.77.7s-.47.49-.47.7v2.33c.21.21.44.47.7.78s.49.46.7.46h2a2.8,2.8,0,0,0,1.71-2.79c.31.2.88.62,1.71,1.24a4.16,4.16,0,0,1,1.39,1.4l-1.7.15a2.42,2.42,0,0,0-1.71,2.49v.62a3,3,0,0,0,1,1.32,2.34,2.34,0,0,0,1.47.54,5,5,0,0,0,1.25-.31,5.72,5.72,0,0,0,1-1.24,6.08,6.08,0,0,0,.38-1.71h.16c.52.52,1,1,1.4,1.48s.88,1,1.4,1.47a3.55,3.55,0,0,0-2.18.7,2.3,2.3,0,0,0-.93,1.94c0,1.56.83,2.34,2.48,2.34h.78c.72-.32,1.14-.65,1.24-1s.26-.91.47-1.64a7.39,7.39,0,0,1,1,1.25c.26.41.54.83.85,1.24v.31l-.46.16c-.21.2-.47.44-.78.7a1,1,0,0,0-.46.69v1.4a2.77,2.77,0,0,0,1.7,1.71h1.09a7.59,7.59,0,0,0,.7-.39,1.44,1.44,0,0,1,.7-.23,2.29,2.29,0,0,1,.93,1.79v2.25l.31.62a9.37,9.37,0,0,1,2.49,3,7.82,7.82,0,0,1,.93,3.65v.78l-.93-.78h-1.55a1.42,1.42,0,0,0-.78.7,2,2,0,0,0-.31,1v.16a2.79,2.79,0,0,0,1.86,1.7c.83-.2,1.27-.46,1.32-.77a1.17,1.17,0,0,1,.55-.78h.15c.31,0,.52.37.62,1.09a17.6,17.6,0,0,1,.16,2.41V234a3.46,3.46,0,0,0,.31,1.78v5.75c0,1.14-.05,2.33-.16,3.58s-.21,2.43-.31,3.57l-.77,1.55a3.68,3.68,0,0,0,.07.7,3.87,3.87,0,0,1,.08.86,3.53,3.53,0,0,1-.62,1.78,4.57,4.57,0,0,0-.62,2.41,3,3,0,0,0-.78,1.09l-.15,1.4a19.45,19.45,0,0,1-1.17,2.25,5.16,5.16,0,0,0-.85,2.25,16.7,16.7,0,0,0-2.57,3.58q-1.32,2.32-2.4,4a28.36,28.36,0,0,1-3.73,4.35q-2.65,2.64-5.83,5.28a75,75,0,0,1-6.21,4.66,11.35,11.35,0,0,1-4.9,2.17,9.32,9.32,0,0,1-1.63.78c-.78.31-1.63.62-2.56.93s-1.82.57-2.64.78a8.37,8.37,0,0,1-1.71.31,12.43,12.43,0,0,1-3.65,1,31.14,31.14,0,0,1-3.81.23,2.7,2.7,0,0,0-.78.16,5.55,5.55,0,0,0-.77.31H389.12l-.31.46v3.11l-.93,1.56-.15,1.39a31,31,0,0,1-3.66,6.06,27.86,27.86,0,0,1-5,5.13,7.91,7.91,0,0,1-2.1,1.24,5.55,5.55,0,0,0-1.94,1.25c-.42.1-.81.2-1.17.31a4.34,4.34,0,0,1-1.16.15l-.63.47a24.46,24.46,0,0,1-3.26.39c-1,.05-2.12.07-3.26.07H362.4a8.42,8.42,0,0,1-2.95-.46l-.62-.47a5.84,5.84,0,0,1-2.33-.46l-.47-.47a7.41,7.41,0,0,1-3.88-1.71,21.45,21.45,0,0,1-3.81-3.81,45.9,45.9,0,0,1-3.26-4.66,30.07,30.07,0,0,1-2.25-4.27,7.49,7.49,0,0,0-.47-2.64,7.08,7.08,0,0,1-.47-2.49V208.29a5.32,5.32,0,0,1,.24-1.17,2.55,2.55,0,0,1,.54-1.16,5.4,5.4,0,0,1,.7-3,4.72,4.72,0,0,0,.7-2.64,7.76,7.76,0,0,1,.78-1.47c.41-.68.87-1.38,1.39-2.1s1-1.37,1.48-1.94.85-.86,1.16-.86a1.58,1.58,0,0,1,.39.24,1.67,1.67,0,0,0,.39.23h.93a2.89,2.89,0,0,0,.78-.78v-.93l-.31-.62v-.47a3.41,3.41,0,0,1,1.32-.93,4,4,0,0,0,1.32-.78A4.83,4.83,0,0,0,355.1,190.26Zm7.3,2.64c-.31,0-.46-.05-.46-.15l-.16-.47a2.91,2.91,0,0,0-1.24-.93h-1.4a1.89,1.89,0,0,0-1.09,1.09v1.86a2.87,2.87,0,0,1-1.09.86,7.22,7.22,0,0,0-1.24.85,3.14,3.14,0,0,0-2.1,1.32,16.12,16.12,0,0,0-1.63,2.1h.16l1.08-.62h.47a3.35,3.35,0,0,0,.7.54,1.58,1.58,0,0,0,.85.24,7.21,7.21,0,0,0,.94-.63,1.08,1.08,0,0,0,.23-.93,8.66,8.66,0,0,1-.08-.93,2.55,2.55,0,0,1,1.09-.54,4.67,4.67,0,0,0,1.24-.55,35.71,35.71,0,0,0,4.35-.77,18.42,18.42,0,0,1,4.51-.47l1.09.78a2.68,2.68,0,0,0,1.08.15c.62,0,1-.1,1.17-.31a2.36,2.36,0,0,1,1-.62h5.28c.31.21.65.44,1,.7a2,2,0,0,0,1.17.39,5.51,5.51,0,0,0,1.24-.31,2.94,2.94,0,0,1,1.09-.78H387a3.28,3.28,0,0,0,2.33,1.09h.46c.32-.21.6-.42.86-.62a2.63,2.63,0,0,1,.85-.47h5.29a3.28,3.28,0,0,0,2.33,1.09h.46l.86-.47a4.16,4.16,0,0,0,.85-.62h.93a11.06,11.06,0,0,1,2.57.31,25.29,25.29,0,0,0,2.56.47l.62.31h2.64l.78.62a6.68,6.68,0,0,1-.08.85,7,7,0,0,0-.08.86v1.08a1,1,0,0,0,.47.7c.31.26.57.5.78.7h2.33c.83-.41,1.29-.88,1.4-1.4l.15-1.55h.16a1.75,1.75,0,0,1,.54.08,1.8,1.8,0,0,0,.54.08,3.67,3.67,0,0,0,1.56.77,5,5,0,0,1,1.55.62c.41.21.65.45.7.7s.34.5.86.7l1.55.16a9.81,9.81,0,0,1,2,1.24v2c.21.31.39.6.54.86a2,2,0,0,0,1,.69h.93a4.42,4.42,0,0,0,.94-.07,5.23,5.23,0,0,0,.93-.39,3,3,0,0,1,1.09.78,1.46,1.46,0,0,1-.16.62c-.1.21-.21.41-.31.62v1.55l.47.93a1.94,1.94,0,0,0,1.24.78h.62a2.94,2.94,0,0,0,1.87-.62h.46c.52.52.78.88.78,1.09a2.13,2.13,0,0,1-.23.93,2.34,2.34,0,0,0-.24,1.09,2.51,2.51,0,0,0,.47,1.55l.93.62h2.33a4.82,4.82,0,0,1,1.24,1.71,2.43,2.43,0,0,0,.31,2,2.39,2.39,0,0,0,.94.78,2.41,2.41,0,0,1,.93.77,7.48,7.48,0,0,0,.78,2.49c.41.83.85,1.68,1.32,2.56s.87,1.77,1.24,2.64a7.13,7.13,0,0,1,.54,2.72v.31a1.67,1.67,0,0,1-.23.39,1.93,1.93,0,0,0-.23.39v.93c0,.21.15.44.46.7s.57.49.78.7a5.07,5.07,0,0,1,.31,1.17,10.25,10.25,0,0,1,.16,1.78v3.11l.15.47-.15.15a.61.61,0,0,0-.47.16,1.73,1.73,0,0,1-.47.31l-.31.46V242a1.45,1.45,0,0,0,.39.93c.26.31.49.57.7.78v4.19a3.6,3.6,0,0,1-.78,1.71v2.49a3.73,3.73,0,0,0-.54.7,7.59,7.59,0,0,0-.39.7l-.15,1.7a27.41,27.41,0,0,1-1.17,2.65,12,12,0,0,0-1,2.79,5.11,5.11,0,0,0-.93,1.87,6.63,6.63,0,0,0-1.32,1.94c-.37.78-.65,1.42-.86,1.94h.16a10.73,10.73,0,0,0,.85-1c.37-.47.73-1,1.09-1.48s.7-1,1-1.55a2.68,2.68,0,0,0,.47-1.24,5.27,5.27,0,0,0,.93-1.87,8.68,8.68,0,0,0,1.55-2.95,25,25,0,0,1,1.25-3.11,4.21,4.21,0,0,1,1.08-3.1v-2.49a4.35,4.35,0,0,0,.47-.85,4.4,4.4,0,0,1,.47-.86c0-1.14.05-2.35.15-3.65s.16-2.51.16-3.65a2.46,2.46,0,0,0-.31-.93v-3a13.74,13.74,0,0,0-.32-3,31.87,31.87,0,0,0-1-3.19,9.94,9.94,0,0,1-.69-3.18.62.62,0,0,1,.31-.62l.62-.31a2,2,0,0,0,.62-.55,1.79,1.79,0,0,0,.31-1.16v-.47a1.93,1.93,0,0,0-1.24-1.4h-1.56l-.62.32-.31-.32a6.14,6.14,0,0,0-.39-.93,7.44,7.44,0,0,0-.54-.93v-1.71c-.42-.83-.7-1.24-.86-1.24s-.49-.26-1-.78a16.26,16.26,0,0,1-1.94-2.79,16,16,0,0,0-1.94-2.8,33.38,33.38,0,0,0-6.21-6.14q-3.42-2.56-7.15-5a3.45,3.45,0,0,0-.39-1.55,2.2,2.2,0,0,0-1.16-1.09h-2.33a2.37,2.37,0,0,1-.94.31,3.07,3.07,0,0,1-.7-.08c-.25-.05-.38-.12-.38-.23v-.15a1.49,1.49,0,0,0,.77-.94V192a1.88,1.88,0,0,0-1.24-1.08h-2.49c-.21.2-.46.44-.77.69s-.47.5-.47.7l-.15,1.71h-.47a5.56,5.56,0,0,1-1.94-.31l-1.79-.62-.31-.31a2.4,2.4,0,0,0-1.55-1.86h-2.18c-.21,0-.46.18-.78.54s-.56.65-.77.85h-2.64a5.29,5.29,0,0,1-2.18-.31,2.48,2.48,0,0,0-1.4-1.08h-1.71a4,4,0,0,0-1,.69,2.08,2.08,0,0,1-.85.55h-4.35a.32.32,0,0,1-.23-.08.35.35,0,0,0-.24-.08,9,9,0,0,0-.7-.62,3.57,3.57,0,0,0-.69-.46h-1.71a3.64,3.64,0,0,0-1,.69,2.18,2.18,0,0,1-.86.55h-4.35a.32.32,0,0,1-.23-.08.32.32,0,0,0-.23-.08c-.21-.2-.45-.41-.7-.62a3.61,3.61,0,0,0-.7-.46h-1.71a3.8,3.8,0,0,0-1,.69,2.11,2.11,0,0,1-.86.55H372a1.77,1.77,0,0,1-.85-.7,1.92,1.92,0,0,0-1.63-.54,1.84,1.84,0,0,0-1.17.31,9.1,9.1,0,0,0-.85.77c-1,.21-1.87.37-2.49.47s-1.19.21-1.71.31A8.2,8.2,0,0,1,362.4,192.9Zm-3.88,9.95a1.37,1.37,0,0,0,1.55,1.55,1.26,1.26,0,0,0,1-.46,1.5,1.5,0,0,0,.39-.94,2.07,2.07,0,0,0-.16-.93c-.31-.31-.52-.46-.62-.46h-1.24A1.21,1.21,0,0,0,358.52,202.85Zm4.19-4.66v.62c.31.72.52,1.09.62,1.09a5.44,5.44,0,0,1,1.25.62h.15a2.21,2.21,0,0,0,2.18-1.56v-1.7a1.24,1.24,0,0,0-.86-1,3.68,3.68,0,0,0-1.16-.24,2.21,2.21,0,0,0-2.18,1.4Zm.62,9.47V208a1.86,1.86,0,0,0,1.09,1.09h.78a9,9,0,0,1,.7-.62.87.87,0,0,0,.39-.62v-.93l-.32-.47-.62-.31a1.41,1.41,0,0,0-.62-.15,1.92,1.92,0,0,0-1.4,1.39Zm1.25,10.1.31.31a.28.28,0,0,0,.31-.31.28.28,0,0,0-.31-.31A.28.28,0,0,0,364.58,217.76Zm2.79-14.6v.46a2.49,2.49,0,0,0,2.33,1.71,2.34,2.34,0,0,0,1.63-.62A2.15,2.15,0,0,0,372,203a2.23,2.23,0,0,0-.7-1.63,2.43,2.43,0,0,0-1.78-.7,1.1,1.1,0,0,0-.47.08,1.08,1.08,0,0,1-.46.08,7.3,7.3,0,0,0-.94,1.09A2.25,2.25,0,0,0,367.37,203.16Zm1.4,39.15.31.62a.86.86,0,0,0,.62.16.83.83,0,0,0,.94-.94c0-.51-.32-.77-.94-.77h-.31l-.39.39A.74.74,0,0,0,368.77,242.31Zm.16-9.94v.46c0,.31.25.47.77.47h.16a1.72,1.72,0,0,0,.62-1.09v-.15a.93.93,0,0,0-.78-.47.71.71,0,0,0-.77.47Zm0,19.57v.47a.71.71,0,0,0,.77.46h.16a1.7,1.7,0,0,0,.62-1.08v-.16a.92.92,0,0,0-.78-.46.71.71,0,0,0-.77.46Zm.15-29.21v.16l.31.31h.31c.31,0,.47-.21.47-.62v-.16l-.31-.31h-.16A.55.55,0,0,0,369.08,222.73Zm.16,39v.15l.31.32h.31l.31-.32v-.15c0-.21-.05-.31-.16-.31a.45.45,0,0,1-.31-.16h-.15l-.31.31Zm.15-48.94c0,.31.1.47.31.47L370,213v-.16l-.31-.31-.31.16Zm0,58.73v.15l.16.16h.15l.16-.16v-.31l-.16-.15ZM372,198.19a2.6,2.6,0,0,0,1.87,2.48h.46a2.2,2.2,0,0,0,1.25-.31,7.14,7.14,0,0,0,1.08-.93,2.49,2.49,0,0,0,.32-1.09,5,5,0,0,0-.32-1.4l-.93-.93a5.38,5.38,0,0,0-1.24-.31h-.47a10.85,10.85,0,0,0-1.47.86A1.9,1.9,0,0,0,372,198.19Zm.94,9v.46a1.33,1.33,0,0,0,1.39,1.09,1.7,1.7,0,0,0,1.71-1.24v-.62a2.35,2.35,0,0,0-1.24-1.09h-.16a2.07,2.07,0,0,0-.93.16l-.77.77Zm.15,40.08v.31a1.59,1.59,0,0,0,1.55,1.09H375a1.88,1.88,0,0,0,1.24-1.24v-.63a1.9,1.9,0,0,0-1.09-1.24h-.93a1.45,1.45,0,0,0-.93.78A2.07,2.07,0,0,0,373.12,247.28Zm.31-9.94v.46a1.45,1.45,0,0,0,.93.78h.16c.52,0,.83-.1.93-.31a5,5,0,0,0,.31-.93l-.15-.47a7.61,7.61,0,0,0-.94-.62h-.62a3.18,3.18,0,0,0-.62.78Zm0,19.42v.46l.31.63.62.31h.16a1.32,1.32,0,0,0,1.4-.94v-.77a3.44,3.44,0,0,0-.62-.78h-1.25l-.31.16-.31.46Zm.47-29a.4.4,0,0,0,.46.46h.31l.32-.31v-.47l-.32-.31h-.46l-.31.31ZM377,203a2.77,2.77,0,0,0,.15,1.09,6.61,6.61,0,0,0,1.09.93,2.17,2.17,0,0,0,1.24.31,3.41,3.41,0,0,0,1.87-.77,2.55,2.55,0,0,0,.46-1.56,2.68,2.68,0,0,0-1.24-2.17,4.15,4.15,0,0,0-1.24-.16A2.06,2.06,0,0,0,377,203Zm.62,39.15c0,1.35.56,2,1.71,2a2.83,2.83,0,0,0,1.16-.23,1.17,1.17,0,0,0,.7-.85v-.47a1.8,1.8,0,0,0-1.24-1.86h-1.25a1.14,1.14,0,0,0-.69.62Zm0,9.79v.62a2.1,2.1,0,0,0,2,1.56,1.45,1.45,0,0,0,.93-.39c.31-.26.57-.49.78-.7a2.6,2.6,0,0,0,.31-1.09,2.52,2.52,0,0,0-.31-.93,2.94,2.94,0,0,0-1.25-.93H379a1.9,1.9,0,0,0-1.4,1.4ZM381,294.82l-.93,1.56-.15,1.55a10,10,0,0,0-1.09,1.71,6,6,0,0,0-.78,1.71l.16.15c.1,0,.36-.26.78-.77a15.54,15.54,0,0,0,1.24-1.87c.41-.72.8-1.42,1.16-2.1s.6-1.11.7-1.32l.16-1.4.77-1.55v-2.33l-.15-.15c-.21,0-.54.23-1,.69a5.58,5.58,0,0,0-.86,1Zm-2.79-33.25a1.81,1.81,0,0,0,.15.78l.47.47a1.36,1.36,0,0,0,1.24,0l.47-.47a1.81,1.81,0,0,0,.15-.78,1.4,1.4,0,0,0-.77-1.24h-.78A1.22,1.22,0,0,0,378.25,261.57ZM381.82,198q0,2.64,2.49,2.64a1.81,1.81,0,0,0,1.16-.31,11.67,11.67,0,0,0,1-.93,2.53,2.53,0,0,0,.31-1.4v-.46a3,3,0,0,0-.77-1.09,3.29,3.29,0,0,0-1.09-.78h-1.4a2.79,2.79,0,0,0-1.71,1.71Zm.16,50.49c.51.52,1.19,1.25,2,2.18a5.16,5.16,0,0,0,2.48,1.71,4.14,4.14,0,0,1,.7,1.24q.39.93,2.1.93a2.33,2.33,0,0,0,2.48-2l.16-.15h4.35a4,4,0,0,0,1.09,1.47,2.32,2.32,0,0,0,1.55.7,2,2,0,0,0,1.55-.7,4.89,4.89,0,0,0,.94-1.47c.93-.1,1.84-.18,2.72-.24s1.73-.12,2.56-.23l.15.16c.42,1.14,1,1.71,1.87,1.71H409a1.7,1.7,0,0,0,1.24-1.71,1.54,1.54,0,0,0-.77-1.4l-.94-.31v-.16l3.27-3.42v-.31h-.31l-1.71,1.71a5,5,0,0,1-1.87,1.25,3.68,3.68,0,0,0-.7.07,3.07,3.07,0,0,1-.7.08h-11a3.85,3.85,0,0,0,1.09-1.55v-.78a4.08,4.08,0,0,0-.31-1.55,1.89,1.89,0,0,0-1.09-1.09h-2a2.84,2.84,0,0,0-1.55,1.71v1.86a3.2,3.2,0,0,0,.39.62,5,5,0,0,0,.54.63v.15h-5a8.79,8.79,0,0,0-.7-.62.84.84,0,0,1-.39-.62v-2a1.69,1.69,0,0,0-.85-1c-.37-.16-.8-.34-1.32-.54l-.16-.16v-5.75a2.31,2.31,0,0,1,.47-.39,2,2,0,0,0,.46-.39V237l-.31-.31-.62-.31v-3.73a.64.64,0,0,0-.46-.16h-.16c-.21.21-.52.49-.93.86s-.62.64-.62.85Zm.15,8.39a1.93,1.93,0,0,0,1.4,2h1.71a2.2,2.2,0,0,0,1.55-2.17,2.49,2.49,0,0,0-.31-1.09,3.39,3.39,0,0,0-1.09-.93h-2a1.23,1.23,0,0,0-1,.85A4.11,4.11,0,0,0,382.13,256.91Zm.62-49.87v.31a1.91,1.91,0,0,0,1.09,1.25h.93a1.89,1.89,0,0,0,1.09-1.09v-.62a4,4,0,0,0-.78-.93,1.6,1.6,0,0,0-.77-.16,2,2,0,0,0-.93.16,1.66,1.66,0,0,0-.63.77Zm3.89-4a2.46,2.46,0,0,0,.31,1.09c.21.21.44.47.7.78a1,1,0,0,0,.7.46H389a3.26,3.26,0,0,0,2.17-.77,2.56,2.56,0,0,0,.47-1.56,2.68,2.68,0,0,0-1.24-2.17,4.17,4.17,0,0,0-1.25-.16,2.11,2.11,0,0,0-1.63.47,6.65,6.65,0,0,0-.85,1.55Zm3.1,31.7v2.64a22.09,22.09,0,0,1-.15,2.64l-.16.31a7,7,0,0,0-1.63.78,1.74,1.74,0,0,0-.7,1.55v.47a2.47,2.47,0,0,0,1.09,1.39h2c.21-.1.47-.2.78-.31a2.64,2.64,0,0,1,.77-.15h4.67a3.05,3.05,0,0,1,1.08.39,3.2,3.2,0,0,0,1.4.39,3,3,0,0,0,1.55-.63c.83,0,1.64,0,2.41-.07s1.58-.13,2.41-.24a3.74,3.74,0,0,0,2.33-1.94,6.11,6.11,0,0,0,.78-2.87,5.22,5.22,0,0,0-1.24-3.27,3.85,3.85,0,0,0-3.11-1.55h-14C389.85,234.44,389.74,234.59,389.74,234.7Zm-2.48,27a1.57,1.57,0,0,0,.47,1,2.19,2.19,0,0,0,.93.7h1.24a.84.84,0,0,0,.62-.39,8.79,8.79,0,0,1,.62-.7v-1.71a1.9,1.9,0,0,0-1.08-1.09H388.5a2.37,2.37,0,0,0-.39.24,1.76,1.76,0,0,1-.38.23l-.32.47A3.34,3.34,0,0,0,387.26,261.73Zm4.35-63.54c0,1.65.88,2.48,2.64,2.48h.62c.21,0,.52-.25.93-.77a7.07,7.07,0,0,0,.78-1.09v-1.24a2.94,2.94,0,0,0-.78-1.09,3.17,3.17,0,0,0-1.08-.78h-1.4A2.6,2.6,0,0,0,391.61,198.19Zm0,58.57a2.33,2.33,0,0,0,2.64,2.64,2.58,2.58,0,0,0,2-1.24,2.53,2.53,0,0,0,.31-1.4v-.47a3.46,3.46,0,0,0-1.55-1.86h-1.87a1.51,1.51,0,0,0-.93.62l-.62.93Zm.93-49.72v.31a3.71,3.71,0,0,0,.93,1.25,1,1,0,0,0,.63.15c.62,0,1.13-.41,1.55-1.24v-.62a4.31,4.31,0,0,0-.78-.93,1.63,1.63,0,0,0-.77-.16,2.09,2.09,0,0,0-.94.16,1.66,1.66,0,0,0-.62.77Zm3.89-4a3.1,3.1,0,0,0,.62,1.71l.93.62h1.86a2.82,2.82,0,0,0,1.56-1.71v-1.39a2,2,0,0,0-1.56-1.56h-1.71A2.31,2.31,0,0,0,396.43,203Zm.31,58.73v.15a2.47,2.47,0,0,0,2.33,1.71,1.79,1.79,0,0,0,2-2,2.87,2.87,0,0,0-.31-1.24,1.43,1.43,0,0,0-.94-.78H398A2.7,2.7,0,0,0,396.74,261.73Zm4.66-63.54V199a2.79,2.79,0,0,0,1.71,1.71h1.55a2.84,2.84,0,0,0,1.71-1.55v-.78a2.43,2.43,0,0,0-.31-1.55c-.21-.21-.62-.57-1.24-1.09h-1.71a2.79,2.79,0,0,0-1.71,1.71Zm.15,58.72v.78a2,2,0,0,0,2.18,1.55,2.17,2.17,0,0,0,1.71-.7,2.39,2.39,0,0,0,.62-1.63,2.44,2.44,0,0,0-.47-1.32,1.87,1.87,0,0,0-1.09-.85h-.62a4.14,4.14,0,0,0-1.24.15,8.84,8.84,0,0,1-.7.63.82.82,0,0,0-.39.62Zm.16-9.63v.47a1.91,1.91,0,0,0,1.4,1.4h1.08a3.65,3.65,0,0,0,1.25-1.25v-1.4a2.33,2.33,0,0,0-1.25-1.08H402.8a1.49,1.49,0,0,0-.94.77A2.77,2.77,0,0,0,401.71,247.28Zm.46-39.93a1.8,1.8,0,0,0,.16.78,2.71,2.71,0,0,0,1.4.93h.15a1.24,1.24,0,0,0,1-.46c.26-.31.49-.57.7-.78v-1.24a1.45,1.45,0,0,0-.93-.78h-1.4A1.6,1.6,0,0,0,402.17,207.35Zm1.56,59.51.15-.16v-.15h-.31v.15Zm2.48-63.7v.62a2.93,2.93,0,0,0,1.09,1.32,2.7,2.7,0,0,0,1.55.54,2.47,2.47,0,0,0,2.33-1.55v-2.17a3.54,3.54,0,0,0-1.24-1.25h-2.17A2.43,2.43,0,0,0,406.21,203.16Zm.62,58.72c0,.32.24.65.7,1a2.18,2.18,0,0,0,1.32.55,1.61,1.61,0,0,0,1.17-.55,1.8,1.8,0,0,0,.54-1.32c0-1.13-.67-1.7-2-1.7h-.46A1.92,1.92,0,0,0,406.83,261.88Zm6.84-52.2a3.06,3.06,0,0,0,1.63-.54,1.67,1.67,0,0,0,.86-1.48,2,2,0,0,0-.47-1.32,3.46,3.46,0,0,0-1.09-.85h-1.71a1.9,1.9,0,0,0-1.24,1.09v1.71A2.29,2.29,0,0,0,413.67,209.68Zm-1.86,47.23a1.71,1.71,0,1,0,3.41,0,1.21,1.21,0,0,0-.38-.85l-.7-.7h-.94a1.9,1.9,0,0,0-1.39,1.4Zm1.71-9.32h.31v-.46h-.31ZM416,202.07v2a3.33,3.33,0,0,0,.78.86,4.8,4.8,0,0,0,.93.69h1.86a1.89,1.89,0,0,0,1.4-1.24v-2.64a1.9,1.9,0,0,0-1.08-1.09h-2.65A1.93,1.93,0,0,0,416,202.07Zm1.24,10.41V213l.31.62a1.71,1.71,0,0,0,1.25.46h.31a1.86,1.86,0,0,0,1.24-1.24V212a2.32,2.32,0,0,0-1.24-1.08h-.78a1.9,1.9,0,0,0-1.09,1.08Zm.31,49.09V262l.16.31.47.31h.15a1,1,0,0,0,1.09-1.09v-.15l-.31-.47-.31-.15H418l-.47.46Zm.32-9.47c0,.52.2.77.62.77h.15l.47-.31v-.77l-.31-.31h-.62l-.31.31Zm5.74-41.64a2.31,2.31,0,0,0,1.71-.62,4.31,4.31,0,0,1,.31-.54,4,4,0,0,0,.31-.55v-1.86a1.9,1.9,0,0,0-1.39-1.4h-2.33c-.21.21-.47.44-.78.7s-.47.49-.47.7v1.86A2.7,2.7,0,0,0,423.61,210.46Zm-1.08,7a1.67,1.67,0,0,0,.62,1.09.32.32,0,0,1,.23.08c.05,0,.18.07.39.07.72-.2,1.09-.56,1.09-1.08a.84.84,0,0,0-.47-1,1.08,1.08,0,0,1-.31-.24h-.62l-.62.32-.31.46Zm.31,39.46v.31l.31.31h.31l.31-.31v-.62l-.31-.31h-.31l-.31.31Zm3.26-44.27a2.41,2.41,0,0,0,1.71,2.48h1.55a1.69,1.69,0,0,0,.86-.78c.25-.41.44-.72.54-.93V212c0-.2-.21-.51-.62-.93s-.73-.62-.93-.62H427.5c-.52.1-1,.57-1.4,1.4Zm1.09,9.78v.16a1.84,1.84,0,0,0,1.08,1.24h.78a3.18,3.18,0,0,0,.78-.62,1.81,1.81,0,0,0,.15-.78,1.76,1.76,0,0,0-.15-.77c-.31-.31-.52-.47-.62-.47h-1.09c-.42.1-.73.47-.93,1.09Zm3.73-4.81v.62a3,3,0,0,0,1,1.32,2.34,2.34,0,0,0,1.47.54h.16l1.08-.54a1.8,1.8,0,0,0,.78-1v-1.71a2.2,2.2,0,0,0-2.17-1.4,2.29,2.29,0,0,0-2.33,1.56Zm.93,9.78v.47a3.51,3.51,0,0,0,1.24,1.24H434a1.87,1.87,0,0,0,1.09-1.24v-.31a3.8,3.8,0,0,0-.15-1,1,1,0,0,0-.78-.7h-1.4a1.47,1.47,0,0,0-.93,1.09Zm.77,10v.46l.32.31h.77l.47-.31a.62.62,0,0,0,.15-.46v-.16l-.31-.46-.31-.16h-.77l-.32.31ZM436,222.42v.78c.42,1,1,1.55,1.87,1.55a2.43,2.43,0,0,0,2.17-1.24v-1.86l-.93-.94a2.52,2.52,0,0,0-.93-.31,2.21,2.21,0,0,0-2.18,1.4Zm.31,10a1.49,1.49,0,0,0,.47,1.08,2.56,2.56,0,0,0,.93.63h.93a1.91,1.91,0,0,0,1.09-1.25v-.46a2.26,2.26,0,0,0-.15-.94,8.45,8.45,0,0,0-1.25-.77h-.15a1.69,1.69,0,0,0-1.56.77A2.55,2.55,0,0,0,436.35,232.37Zm.63,9.78a1.67,1.67,0,0,0,.62,1.09l.46.16c.83-.21,1.25-.57,1.25-1.09a1.28,1.28,0,0,0-.16-.78c-.31-.31-.52-.46-.62-.46h-.78l-.46.31-.31.46Zm1.39,27.19v.31h.16a2.47,2.47,0,0,0,.78-.85,2.47,2.47,0,0,1,.77-.86v-.31h-.31a7.27,7.27,0,0,0-.7.86A6.34,6.34,0,0,1,438.37,269.34Zm2.8-41.79v.62a1.69,1.69,0,0,0,.78.86,2.07,2.07,0,0,0,1.08.38h.31a2.4,2.4,0,0,0,1.4-1.08v-1.56a1.76,1.76,0,0,0-.23-.38,1.93,1.93,0,0,1-.23-.39c-.21-.11-.45-.21-.7-.31a1.8,1.8,0,0,0-.7-.16,2.29,2.29,0,0,0-.93.31,3,3,0,0,0-.78,1.09Zm.47,9.63v.62a3.18,3.18,0,0,0,.62.78,1.72,1.72,0,0,0,.77.16h.31a1.5,1.5,0,0,0,.94-.78v-1.4a3.29,3.29,0,0,0-1.09-.78H443a1,1,0,0,0-.54.16,5.18,5.18,0,0,1-.54.31l-.31.47Zm.62,9.95v.31a.71.71,0,0,0,.77.46.92.92,0,0,0,.78-.46v-.63l-.47-.46h-.62l-.46.46Zm9.16-9.79v.15a2.39,2.39,0,0,0,1.4,1.25c.72-.21,1.14-.52,1.24-.94v-1.24l-.46-.46a2.07,2.07,0,0,0-.93-.16,1.35,1.35,0,0,0-1.09.62A1.21,1.21,0,0,0,451.42,237.34Zm.63,9.79v.31a.71.71,0,0,0,.77.46.92.92,0,0,0,.78-.46v-.78c-.11-.21-.37-.31-.78-.31h-.31l-.46.46Z"/></svg>